<svg id="圖層_1" data-name="圖層 1" xmlns="http://www.w3.org/2000/svg" width="438" height="98.82" viewBox="0 0 438 98.82"><defs><style>.cls-1,.cls-5,.cls-6,.cls-7{fill:#38445b;}.cls-2,.cls-5{opacity:0.31;}.cls-3,.cls-6{opacity:0.03;}.cls-4,.cls-7{opacity:0.35;}.cls-5,.cls-6,.cls-7{isolation:isolate;}</style></defs><title>logo</title><polygon class="cls-1" points="438 0 437.96 0.07 437.9 0.07 438 0"/><path class="cls-1" d="M8.83,14.1A10.25,10.25,0,0,0,9.26,16v.28l.29.19v.59h0v.5h0a1.75,1.75,0,0,1-.32.48H9.12l-.21.18h0a5.64,5.64,0,0,1-3.17,1.34,5.43,5.43,0,0,1-3.1-.93h0v-.1l-.2-.16V18.3h0A1.27,1.27,0,0,1,2,17.59v-.68a1.29,1.29,0,0,1,.42-.71H2.5v-.08L2.73,16h0a5.34,5.34,0,0,1,1.21-.84,5.1,5.1,0,0,1,1.61-.54H7l1.73.48L9,14m25.64,4c-.69.67-1.35,1.38-2,2.09L32,20.9c-.21.23-.41.46-.6.71A40.68,40.68,0,0,0,22.42,47a36.85,36.85,0,0,0,.2,4.07,54.09,54.09,0,0,0,.64,7.73c.52,3.31,1.32,6.61,2.09,9.81.33,1.38.68,2.76,1,4.15.21.93.45,1.86.69,2.79s.57,2.2.79,3.29c.42,2,.66,3.92.92,6v.19c.1.76.16,1.59.21,2.54V90a.43.43,0,0,0,0,.16v.12a8.19,8.19,0,0,1-1.87,4.3,5.63,5.63,0,0,1-.84.85h0a6.74,6.74,0,0,1-1.2.86,10.7,10.7,0,0,1-3.8.69A9.62,9.62,0,0,1,15,94.9a2.47,2.47,0,0,0-1.72-.62H13a2.27,2.27,0,0,1-1.56-.63,2.74,2.74,0,0,1-.32-.36,4.23,4.23,0,0,1-.71-2,2.43,2.43,0,0,1,.38-1.85h.1a1.3,1.3,0,0,1,.64-.14,2.85,2.85,0,0,1,1,.18,4.31,4.31,0,0,1,1.22.64,3.62,3.62,0,0,1,.42.36l.09.1h.1l.15.18a.82.82,0,0,1,.25.24v.27l.12.12h0v.13a1.8,1.8,0,0,1,.08.39.89.89,0,0,1,0,.23V93l.18.36a2.22,2.22,0,0,0,.57.72,4,4,0,0,0,2.88,1.18A4.4,4.4,0,0,0,21,94.63c.3-.2.6-.4.88-.63a15.52,15.52,0,0,0,1.43-1.26,10.8,10.8,0,0,0,1.26-1.36,11,11,0,0,0,1.73-3.23,8.14,8.14,0,0,0,.37-1.28,7.55,7.55,0,0,0,.22-1.26v-2.4A19.27,19.27,0,0,0,25.67,78l-.15-.38-.24-.6a52.38,52.38,0,0,0-3.61-6.41c-.94-1.52-1.73-2.94-2.58-4.44A33.78,33.78,0,0,1,15.46,49.5a36.6,36.6,0,0,1,.8-6.26c.19-.9.43-1.73.71-2.74a32.28,32.28,0,0,1,1.6-4.34,37.25,37.25,0,0,1,2.14-4.11,39.57,39.57,0,0,1,2.66-3.87,42.89,42.89,0,0,1,4.29-4.84,32.35,32.35,0,0,1,3.45-2.95h.14l.59-.45L33,19.18l.24-.16.36-.24,1.11-.66M18.33,2.75a5.68,5.68,0,0,0-1.23.1,11.72,11.72,0,0,0-2.36.8,13.29,13.29,0,0,0-6.08,5.4A12.93,12.93,0,0,0,7.31,13c-.14,0-.52-.15-.68-.17a4.67,4.67,0,0,0-1.12-.1H5.1A7.09,7.09,0,0,0,1.36,14.6a.5.5,0,0,0-.15.14A1.42,1.42,0,0,0,.92,15,2.85,2.85,0,0,0,0,16.91v.5a2.89,2.89,0,0,0,.92,2,1.64,1.64,0,0,0,.29.3l.15.15a7.06,7.06,0,0,0,4.34,1.7,7.45,7.45,0,0,0,4.37-1.73s.11,0,.14-.15a2.06,2.06,0,0,0,.29-.3,3,3,0,0,0,.78-1.27.61.61,0,0,0,0-.19.89.89,0,0,0,0-.23.81.81,0,0,0,0-.22v-.28a.61.61,0,0,0,0-.19v-.24a.26.26,0,0,0,0-.21.41.41,0,0,0,0-.22,3.5,3.5,0,0,0-.41-.82,9.59,9.59,0,0,1-.44-2.86A9.81,9.81,0,0,1,12.16,7a6.92,6.92,0,0,1,1.45-1.46,10.44,10.44,0,0,1,1.54-.92A9.37,9.37,0,0,1,16.88,4a8.66,8.66,0,0,1,1.9-.23,8.9,8.9,0,0,1,6.44,2.75.75.75,0,0,1,.16.15c.36.37,1.81,2.06,2.16,2.53a13.21,13.21,0,0,1,2.33,5.18,14.83,14.83,0,0,1,.38,3.45V19l-.14.12a36.49,36.49,0,0,0-3.68,3,46.89,46.89,0,0,0-4.45,5,43.3,43.3,0,0,0-2.72,4A46.81,46.81,0,0,0,17,35.45,40.82,40.82,0,0,0,15.29,40c-.29,1-.54,1.92-.74,2.87a37.14,37.14,0,0,0-.83,6.56A35.57,35.57,0,0,0,17.57,67c1.9,3.7,4.47,7,6.13,10.85l.38.94a17.49,17.49,0,0,1,1,4.63v.93h0v.78a.38.38,0,0,1,0,.15v.14a4.45,4.45,0,0,1-.19,1.09,7.12,7.12,0,0,1-.29,1,9.57,9.57,0,0,1-1.49,2.78A10.52,10.52,0,0,1,22,91.49a14.89,14.89,0,0,1-1.3,1.21l-.76.52a2.45,2.45,0,0,1-1.32.36,2.33,2.33,0,0,1-1.72-.72.58.58,0,0,1-.18-.23.67.67,0,0,0,0-.2,3.14,3.14,0,0,0,0-.75,2.3,2.3,0,0,0-.15-.64,2.78,2.78,0,0,0-.21-.57v-.12l-.1-.2c-.09-.15-.18-.3-.28-.44a3,3,0,0,0-.41-.46,5.42,5.42,0,0,0-.83-.59A6.34,6.34,0,0,0,13,87.78a4.79,4.79,0,0,0-1.54-.26A2.8,2.8,0,0,0,9.88,88a.19.19,0,0,0-.14.09.78.78,0,0,0-.27.24,4,4,0,0,0-.88,3.3,5.67,5.67,0,0,0,1,2.78,4.07,4.07,0,0,0,.51.59,4,4,0,0,0,2.77,1.12h.31a.78.78,0,0,1,.53.21,11.33,11.33,0,0,0,7.35,2.49A12.08,12.08,0,0,0,25.62,98a9,9,0,0,0,1.6-1.14,5.89,5.89,0,0,0,1.11-1.12,9.83,9.83,0,0,0,2.23-5.18V87.64h0A26,26,0,0,0,30.37,85c-.28-2.12-.53-4.23-1-6.32s-1-4.08-1.5-6.13c-1-4.58-2.3-9.18-3.06-13.82a52.3,52.3,0,0,1-.6-7.5h0a38.14,38.14,0,0,1-.21-4,38.61,38.61,0,0,1,8.64-24.35c.17-.24.36-.45.53-.65l.7-.78a38.64,38.64,0,0,1,6.84-6.25,4.7,4.7,0,0,0-2.18-.52,5.12,5.12,0,0,0-1.93.39l-.44.13a32.65,32.65,0,0,0-3.62,2c-.21.14-.44.26-.64.41V17a17,17,0,0,0-.63-2.81V14A19.62,19.62,0,0,0,30,10.83a22.17,22.17,0,0,0-1.6-2.47h0a18.55,18.55,0,0,0-5.72-4.89A4.17,4.17,0,0,0,21.18,3l-1.12-.14A14.22,14.22,0,0,0,18.33,2.75Z"/><g class="cls-2"><path class="cls-1" d="M25.1,84.46v.9a.38.38,0,0,0,0-.15Z"/></g><g class="cls-3"><path class="cls-1" d="M11.28,17.92a.61.61,0,0,1,0,.19V18h0Z"/></g><g class="cls-3"><path class="cls-1" d="M11.42,17.19h0a1,1,0,0,1,0,.24Z"/></g><g class="cls-3"><path class="cls-1" d="M11.28,16.55a.31.31,0,0,1,0,.23.49.49,0,0,1,0,.17h0a.24.24,0,0,0,0-.12h0A.28.28,0,0,0,11.28,16.55Z"/></g><path class="cls-1" d="M50.65,37h.59a2.84,2.84,0,0,1,1.3.38h0l.2.22a4.23,4.23,0,0,1,.44.51,4.6,4.6,0,0,1,.48,1v.17l.1.22a3.09,3.09,0,0,1,.11.8v.47A6.34,6.34,0,0,1,54,42v.45A5.53,5.53,0,0,0,52.36,41a5.29,5.29,0,0,0-2.75-.73,10.24,10.24,0,0,0-5,1.64L44.4,42l-.22.12.52-.95a9.34,9.34,0,0,1,1.83-2.45,7.09,7.09,0,0,1,.74-.59,5.68,5.68,0,0,1,3.46-1h0M39.39,51.41a3.8,3.8,0,0,0,.33.78,5.76,5.76,0,0,0,5.37,3.32,10.62,10.62,0,0,0,5-1.45,11.1,11.1,0,0,0,2.58-2,9.76,9.76,0,0,1-1,1.47l-2.18,2.66-.11.12v.15a4.41,4.41,0,0,1-4.5,2.44,20.81,20.81,0,0,1-2.73-.24l-1-.38a4.77,4.77,0,0,1-1-.85,6.25,6.25,0,0,1-.73-3V52.76a6.21,6.21,0,0,1,.14-1.29m11.31-16a7.31,7.31,0,0,0-4.44,1.29,7.52,7.52,0,0,0-.93.76,12,12,0,0,0-2.18,2.87L38.58,49a8,8,0,0,0-1,3.8v1.73a8,8,0,0,0,.87,3.87l.08.12a6.79,6.79,0,0,0,1.73,1.38l1.37.48a18.45,18.45,0,0,0,3.14.3,6.08,6.08,0,0,0,6-3.36L53,54.66a11.27,11.27,0,0,0,2.41-5.37,6.41,6.41,0,0,0,.11-.88h0a19,19,0,0,0,.12-2.13V41.91a12.14,12.14,0,0,0-.12-1.47v-.15a5.56,5.56,0,0,0-.19-1.4h0a5.82,5.82,0,0,0-.81-1.73,4.65,4.65,0,0,0-.61-.72l-.29-.28a4.32,4.32,0,0,0-2.3-.76h-.66ZM45,53.73a4.08,4.08,0,0,1-3.84-2.39c-1.14-2.19-.1-5.77,3.94-7.91a9.58,9.58,0,0,1,4.39-1.55,3.73,3.73,0,0,1,1.88.48,4.58,4.58,0,0,1,2,2.92c.58,2.83-1.56,5.79-4.17,7.2A8.93,8.93,0,0,1,45,53.73Z"/><path class="cls-1" d="M126.84,14.1l.19,1.09,1.73-.49h.55a4.21,4.21,0,0,1,.71,0h.14a5.3,5.3,0,0,1,1.59.52,5.38,5.38,0,0,1,1.21.85h0v.1l.2.17h0a1.19,1.19,0,0,1,.78.57v.5a1.22,1.22,0,0,1-.41.71h-.09l-.21.18h0a5.48,5.48,0,0,1-3.12,1.33,5.85,5.85,0,0,1-3.34-1h0l-.21-.15V18.4h0a1.43,1.43,0,0,1-.34-.5h0v-.5h0v-.66l.19-.31.12-.19V16a11.19,11.19,0,0,0,.41-1.91M101.12,18l1.1.65.37.24.24.16,1,.71h0l.68.48v.09a35.51,35.51,0,0,1,3.49,3,40.5,40.5,0,0,1,4.3,4.86,41.07,41.07,0,0,1,4.75,8,32,32,0,0,1,1.61,4.35q.41,1.38.72,2.73a35.62,35.62,0,0,1,.71,6.26,33.82,33.82,0,0,1-3.45,16.72c-.78,1.5-1.73,2.92-2.6,4.44a53,53,0,0,0-3.62,6.56l-.16.38-.22.59a18.83,18.83,0,0,0-1.18,5.18v2a2.67,2.67,0,0,0,0,.4A6.37,6.37,0,0,0,109.1,87a8.35,8.35,0,0,0,.34,1.21,11.68,11.68,0,0,0,1.73,3.32,15,15,0,0,0,1.21,1.31c.5.49,1,.88,1.5,1.33a9.86,9.86,0,0,0,.92.62,4.19,4.19,0,0,0,2.23.64,4.08,4.08,0,0,0,2.9-1.17,2.46,2.46,0,0,0,.55-.73l.19-.36V92.05a2.67,2.67,0,0,1,0-.4v-.1h0l.12-.13v-.27l.13-.21.17-.21h.1v-.1a2.89,2.89,0,0,1,.47-.38,4.69,4.69,0,0,1,1.17-.62,3.09,3.09,0,0,1,1-.17,1.19,1.19,0,0,1,.64.13h0a2.38,2.38,0,0,1,.86,1.82,4.09,4.09,0,0,1-.71,2l-.29.31a2.25,2.25,0,0,1-1.57.65h-.33a2.57,2.57,0,0,0-1.73.63,9.59,9.59,0,0,1-6.25,2,10.7,10.7,0,0,1-3.8-.69,6.38,6.38,0,0,1-1.19-.87h0a4.22,4.22,0,0,1-.86-.88,7.94,7.94,0,0,1-1.83-4.26v-.12a.43.43,0,0,1,0-.16V87.75c0-.77.12-1.73.2-2.54V85c.26-2.07.5-4,.92-6,.24-1.08.52-2.19.79-3.28s.49-1.86.71-2.8c.31-1.38.64-2.76,1-4.14.78-3.2,1.57-6.5,2.11-9.82a54,54,0,0,0,.62-7.72,36.06,36.06,0,0,0,.12-4.16,40.63,40.63,0,0,0-8.88-25.36c-.21-.28-.43-.54-.62-.75l-.71-.81c-.64-.72-1.3-1.45-2-2.12M117.34,2.75a14.22,14.22,0,0,0-1.73.1L114.49,3a4.39,4.39,0,0,0-1.5.48,18.52,18.52,0,0,0-5.57,4.89h0a20,20,0,0,0-1.59,2.47A21.87,21.87,0,0,0,104.5,14a.89.89,0,0,1,0,.23,18.08,18.08,0,0,0-.62,2.81v.62c-.21-.15-.43-.27-.64-.41a35.6,35.6,0,0,0-3.76-2,.63.63,0,0,1-.44-.14,5.13,5.13,0,0,0-1.93-.4,4.86,4.86,0,0,0-2.18.52,38.25,38.25,0,0,1,6.83,6.13l.69.78a6.66,6.66,0,0,1,.53.66,38.61,38.61,0,0,1,8.64,24.34,38.14,38.14,0,0,1-.21,4h0a48.32,48.32,0,0,1-.6,7.5c-.74,4.65-2,9.24-3.06,13.82-.47,2.06-1.07,4.08-1.5,6.13s-.69,4.2-1,6.33c-.1.89-.16,1.72-.21,2.67h0v2.82a9.91,9.91,0,0,0,2.23,5.18,6.59,6.59,0,0,0,1.12,1.12A8.53,8.53,0,0,0,110,97.77a12.27,12.27,0,0,0,4.56.86,11.33,11.33,0,0,0,7.28-2.37.86.86,0,0,1,.53-.21h.33a4,4,0,0,0,2.77-1.12,7.19,7.19,0,0,0,.51-.59,5.84,5.84,0,0,0,1-2.76,4,4,0,0,0-.88-3.3.81.81,0,0,0-.28-.24.2.2,0,0,0-.13-.09,2.78,2.78,0,0,0-1.59-.43,4.62,4.62,0,0,0-1.52.26,5.66,5.66,0,0,0-1.73.88,4,4,0,0,0-.76.66,4.58,4.58,0,0,0-.42.46,2.43,2.43,0,0,0-.26.44.38.38,0,0,0-.1.2v.12a2.78,2.78,0,0,0-.21.57,4.56,4.56,0,0,0-.14.64,2.36,2.36,0,0,0,0,.75v.2a.6.6,0,0,1-.19.23,2.24,2.24,0,0,1-1.72.72,2.57,2.57,0,0,1-1.32-.36l-.76-.52a15.4,15.4,0,0,1-1.34-1.21,13.13,13.13,0,0,1-1.09-1.15,9.5,9.5,0,0,1-1.49-2.79,7.12,7.12,0,0,1-.29-1,4.45,4.45,0,0,1-.19-1.09v-.14a.38.38,0,0,1,0-.15v-.78h0v-1a17.49,17.49,0,0,1,1-4.63l.38-.94c1.73-3.82,4.24-7.15,6.15-10.85a35.42,35.42,0,0,0,3.65-17.64,37.14,37.14,0,0,0-.83-6.56c-.21-1-.45-1.9-.74-2.87a36.85,36.85,0,0,0-1.73-4.56,44.23,44.23,0,0,0-5-8.33,49.15,49.15,0,0,0-4.35-5,34.54,34.54,0,0,0-3.63-3.1.53.53,0,0,0-.14-.12V17.8a14.74,14.74,0,0,1,.36-3.37A13.44,13.44,0,0,1,108,9.25a27.35,27.35,0,0,1,2.15-2.53l.13-.15A8.62,8.62,0,0,1,118.74,4a9.88,9.88,0,0,1,1.73.61,9.08,9.08,0,0,1,1.53.91A6.37,6.37,0,0,1,123.45,7a9.68,9.68,0,0,1,1.73,5.63,9.33,9.33,0,0,1-.43,2.87,2.81,2.81,0,0,0-.41.81.45.45,0,0,0,0,.23.26.26,0,0,0,0,.21V17a.61.61,0,0,0,0,.19v.27a.89.89,0,0,0,0,.23v.22a.61.61,0,0,0,0,.19,3.08,3.08,0,0,0,.81,1.28,2.76,2.76,0,0,0,.29.3l.14.15A7.53,7.53,0,0,0,130,21.51a7.19,7.19,0,0,0,4.33-1.73s.11,0,.14-.15a2.13,2.13,0,0,0,.3-.3,2.9,2.9,0,0,0,.93-1.86v-.56a2.81,2.81,0,0,0-.92-1.93,2.06,2.06,0,0,0-.29-.3.86.86,0,0,0-.14-.13,7.42,7.42,0,0,0-1.62-1.09,7,7,0,0,0-2.13-.71h-.41a4.59,4.59,0,0,0-1.11.1q-.35.08-.69.18a13.37,13.37,0,0,0-1.33-4A13.3,13.3,0,0,0,121,3.65a11.69,11.69,0,0,0-2.38-.8A5.49,5.49,0,0,0,117.34,2.75Z"/><path class="cls-1" d="M85,37a5.52,5.52,0,0,1,3.45,1,6,6,0,0,1,.74.59A9.34,9.34,0,0,1,91,41.1l.52,1-.2-.1-.19-.12a10.15,10.15,0,0,0-5-1.65,5.39,5.39,0,0,0-2.77.73,5.76,5.76,0,0,0-1.62,1.49V42a6.41,6.41,0,0,1,.1-1.16v-.47a3.72,3.72,0,0,1,.09-.81l.12-.24v-.16a3.35,3.35,0,0,1,.5-1,3.25,3.25,0,0,1,.4-.5l.12-.1a2.37,2.37,0,0,1,1.31-.42H85M96.3,51.41a6.88,6.88,0,0,1,.15,1.28v1.73a6.26,6.26,0,0,1-.74,3,4.51,4.51,0,0,1-1,.85l-1,.38a20.81,20.81,0,0,1-2.73.24,4.4,4.4,0,0,1-4.49-2.44V56.3l-.11-.12-2.17-2.66a8.26,8.26,0,0,1-1-1.49,10,10,0,0,0,2.45,2,10.52,10.52,0,0,0,5,1.46A5.77,5.77,0,0,0,96,52.17a3.8,3.8,0,0,0,.33-.78M85,35.31h-.59a4.41,4.41,0,0,0-2.25.78l-.29.28a5.28,5.28,0,0,0-.61.72,5.54,5.54,0,0,0-.79,1.73h0a5.11,5.11,0,0,0-.17,1.4v.15a8,8,0,0,0-.14,1.47v3.75a3.64,3.64,0,0,0,0,.66,16.18,16.18,0,0,0,.14,2.09h0a2.62,2.62,0,0,0,.1.88,11.18,11.18,0,0,0,2.44,5.37L85,57.24a6.11,6.11,0,0,0,6,3.35,20.87,20.87,0,0,0,3.16-.3l1.34-.48a6.09,6.09,0,0,0,1.73-1.38.34.34,0,0,0,.09-.12,8.13,8.13,0,0,0,1-3.89V52.69a8.28,8.28,0,0,0-1-3.8l-4.65-8.64a11.47,11.47,0,0,0-2.18-2.86,7.52,7.52,0,0,0-.93-.76,7.26,7.26,0,0,0-4.44-1.3Zm5.61,18.42a9,9,0,0,1-4.16-1.25c-2.59-1.41-4.75-4.37-4.15-7.2a4.57,4.57,0,0,1,1.94-2.92,3.73,3.73,0,0,1,1.88-.48,9.58,9.58,0,0,1,4.39,1.55c4,2.14,5.18,5.72,3.94,7.91a4.08,4.08,0,0,1-3.89,2.39Z"/><path class="cls-1" d="M67.84,51a1,1,0,1,1-1,1h0a1,1,0,0,1,1-1m0-1.73A2.73,2.73,0,1,0,70.56,52h0a2.71,2.71,0,0,0-2.71-2.71h0Z"/><g class="cls-4"><path class="cls-1" d="M33.9,97.64Z"/></g><path class="cls-1" d="M33.9,97.64Z"/><path class="cls-1" d="M71.16,96.64,68,96.73h2.44A4.43,4.43,0,0,0,71.16,96.64Z"/><path class="cls-1" d="M64.84,96.64a4.78,4.78,0,0,0,.76.09H68Z"/><path class="cls-1" d="M83.72,88.85a2.47,2.47,0,0,0-1.43.64c-1.27,1-1.9,2.56-3.13,3.61a20.92,20.92,0,0,1-1.73,1.38,12,12,0,0,1-2.09,1.11,14.54,14.54,0,0,1-4.11,1,4.53,4.53,0,0,1-.74.09H65.55a4.78,4.78,0,0,1-.76-.09,14.82,14.82,0,0,1-4.1-1,12.14,12.14,0,0,1-2.11-1.11,14.24,14.24,0,0,1-1.72-1.38c-1.23-1-1.87-2.59-3.13-3.61a2.5,2.5,0,0,0-1.44-.64H52a2.26,2.26,0,0,0-1.33.55A16.3,16.3,0,0,0,48.51,92a13,13,0,0,1-1.64,1.59,14.7,14.7,0,0,1-4.08,2.22,15.85,15.85,0,0,1-4.92.81,16.16,16.16,0,0,1-3.46-.38.71.71,0,0,0-.29,0,.74.74,0,0,0-.33,1.41h.33a15.28,15.28,0,0,0,4.3.59,15,15,0,0,0,11.37-4.87l.12-.14a17.21,17.21,0,0,0,1.42-1.73c.19-.24.45-.76.83-.76s.6.42.7.56a22,22,0,0,0,1.51,2l.15.15a13.93,13.93,0,0,0,5.41,3.81,15.61,15.61,0,0,0,6,1.14H70a15.8,15.8,0,0,0,6-1.14,14,14,0,0,0,5.41-3.81l.13-.15c.52-.61,1-1.26,1.53-2,.1-.14.39-.56.7-.56s.64.52.83.76c.45.59.94,1.14,1.42,1.73l.12.14a15,15,0,0,0,11.37,4.87,15.28,15.28,0,0,0,4.3-.59h.33a.76.76,0,0,0,.41-.67.74.74,0,0,0-.74-.74h0a.71.71,0,0,0-.29,0,16.16,16.16,0,0,1-3.46.38,15.56,15.56,0,0,1-4.92-.81,14,14,0,0,1-4.06-2.22A11,11,0,0,1,87.4,92a16.26,16.26,0,0,0-2.09-2.52A2.13,2.13,0,0,0,84,88.92Z"/><path class="cls-1" d="M284.24,47.73h1.16l-.4,1.09-2.72,7L277.1,69.06h0l-.24.62-4,10.36h-5L269,77l2.59-6.68L278.35,53l.93-2.42L282.2,48a12.57,12.57,0,0,1,1.73-.21h.31m0-1.72h-.62a16.73,16.73,0,0,0-9.78,4.07,61,61,0,0,0-7.34,7.57v.1l.92,1C268,58.19,274.1,51,278,49.48l-.19.17-1.07,2.82L270,69.78l-2.59,6.68L266,80.23l-.62,1.61h8.74l.26-.68,4.16-10.81h0L284,56.53l2.73-7,1.22-3.25a16,16,0,0,0-2.07-.17Z"/><path class="cls-1" d="M302.92,47.73l5.77,2.46L297.46,79.3l-.33.81h-6.75l5.18-13.23,1.21-3.11h0l.08-.26,6-15.69h0m.35-1.73h-1.56L295.2,62.88a95.54,95.54,0,0,1-8.33,10.18c-3.14,3.11-5.4,6-8.25,7.36a2.43,2.43,0,0,1-1,.22l.29-.72.87-2.2,1.73-4.21,8.88-23.12,1-2.57L291.1,46h-1.58L289,47.47l-.91,2.39-2.77,7.06-2.45,6.36-3.8,9.85-1.52,3.92-.9,2.32-1,2.47h1.55a5.12,5.12,0,0,0,1.73-.3c2.87-1.29,5.18-4.25,8.27-7.36a62.77,62.77,0,0,0,6.62-7.94l-6,15.54h10.51c.9-.38,2.19-.58,3.45-1.14A8.6,8.6,0,0,0,306.87,76a5.92,5.92,0,0,0-.13-2.68h0c-.44,1.73-1.56,4.09-5.53,5.82a15.57,15.57,0,0,1-2.13.69l11.84-30.66L303.25,46Z"/><path class="cls-1" d="M371.19,47.72,368,55.89l-.27.74-9.21,23.48h-6.75l1-2.58V77.4h0l.55-1.45,1.73-4.39,7.46-19.14v-.13l.69-1.72,1-2.66H371m-36.73,0h.12L334,49l-1.27,3.3L327.43,66h0L327,67.1,322,80h-6.63l5-12.85,2.37-6.08.1-.31h0l.28-.73.12-.29,2.09-5.37,1.19-3.06c.71-.55,1.45-1.05,2.16-1.5s1.43-.92,2.09-1.28h.38l.71-.26h0a6.49,6.49,0,0,1,.76-.19h1.78m4.92,2.16,1.37.53-1.37-.51h0M342.24,52c.33.3.68.59,1,.92a26.55,26.55,0,0,1,3.2,3.25,26.6,26.6,0,0,1,2.28,4.56l.31.86-1.26,3.27-.37.89-5.56,14.31h-6.75l2.05-5.29,3.34-8.64,1.45-3.71.22-.57a10.49,10.49,0,0,0,.62-1.61,1.29,1.29,0,0,0,.21-.19,12.17,12.17,0,0,0,.47-3.45,2.67,2.67,0,0,0,0-.4,12.16,12.16,0,0,0-1.07-4.68M373.78,46H363.42l-.36.38L359.6,50.2l-.74.82-4.58,5.06-1.73,1.86-2.16,2.16a26,26,0,0,0-2.45-4.92,27.44,27.44,0,0,0-3.46-4c-.81-.76-1.72-1.51-2.53-2.2h0a9.82,9.82,0,0,0-1-.81,9.2,9.2,0,0,0-.95-.69h0a9.56,9.56,0,0,0-1.24-.62h-.12a8.8,8.8,0,0,0-1.43-.45H337l-.43-.11-1-.15h-2.14a4.22,4.22,0,0,0-.62.1h-.54a7.08,7.08,0,0,0-1,.28l-.81.29h-.21l-.22.11a.69.69,0,0,1-.19.1h0c-.74.41-1.5.86-2.21,1.33a29.2,29.2,0,0,0-2.66,1.9,4.29,4.29,0,0,0-.72.55c-.61.5-1.14,1-1.73,1.48h0L320.63,54a74.48,74.48,0,0,0-6.26,6.91l.12,1.83a71.12,71.12,0,0,1,5.79-6.11,14.62,14.62,0,0,1,1.12-1l.33-.31c.21-.21.45-.41.68-.6a10.93,10.93,0,0,1,1.19-.94l-2.2,5.65h0l-.39,1h0l-2.37,6.08-5.91,15.21H323.1l5.46-14h0l.22-.59h0l5.6-14.39,1.29-3.3.59-1.59.14-.33h0c.2.12.39.25.57.38l.17.14h.11a3.38,3.38,0,0,1,.55.45h0v.12l-.62,1.54h0l-6.62,17-.29.78-2.8,7.15-2.54,6.55h1.55L331.79,68l.36-1,.22-.61,1.09-2.78.83-2.14,2.87-7.4L338.35,51l.61-1.49h0a10.4,10.4,0,0,1,2.5,6.67.45.45,0,0,1,0,.23,11.3,11.3,0,0,1-.41,3v.1a10.18,10.18,0,0,1-.57,1.51l-.26.62-1.45,3.71L335.43,74l-2.81,7.83h10.45l6-15.41.35-.88,1.46-3.79h0l10.92-12-.69,1.73v.1l-7.48,19.14-1.73,4.41-.57,1.45-.1.2-1.92,5h10.45a2.73,2.73,0,0,0,.7,0A11,11,0,0,0,370,76.33L369,75.65a10.71,10.71,0,0,1-8.64,5.18l9.15-23.49.3-.76,4.07-10.5Z"/><path class="cls-1" d="M419.08,46.77l-3.12,8-1.08,2.71-5.66,14.57-3,7.81L405.73,81l1,.8a6.52,6.52,0,0,0,.82.55h-9.07l1.7-4.35.59-1.56L402,73.18,404,68h0v-.12l3.77-9.5.43-1.13.24-.64.8-2.07.19-.45.52-1.35L411.46,49l.3-.76a35.72,35.72,0,0,1,7.32-1.4m-28.85,1a17.31,17.31,0,0,1,4.8.65l-1.12,2.91-4.47,11.45L382.7,80.06h-6.77l7.39-19,5-12.78.21-.54h1.72m32.24-2.85h-.84a37.43,37.43,0,0,0-11.2,1.89l-.59,1.52-1.48,3.78-.52,1.36-.16.38L406.9,56l-.24.64-.43,1.1-3.72,9.5a30.6,30.6,0,0,1-5.7,7.4,24.51,24.51,0,0,1-3.73,3l-.33.26h0a21.4,21.4,0,0,1-2.21,1.31h0A19.61,19.61,0,0,1,388,80.3l.47-1.18.43-1.1,3.25-8.35,5.58-14.37,2-5.29.5-1.27A8.54,8.54,0,0,0,399,48a14.72,14.72,0,0,0-2.21-.92,19.22,19.22,0,0,0-6.5-1.1,20.18,20.18,0,0,0-3.64.31A19.16,19.16,0,0,0,379,49.56l.67,1.3a17,17,0,0,1,2.7-1.73,15.73,15.73,0,0,1,3.45-1.28H386l.71-.17-5,12.79L373.39,81.8h10.48L391,63.33l4.46-11.45,1.3-3.33a11.59,11.59,0,0,1,1.62.69l-2.07,5.34-.92,2.31-1.95,5L392,65.61,387.29,77.7l-.45,1.11-.66,1.73-.45,1.14h1.56a18.31,18.31,0,0,0,6.32-2.92h0c.78-.54,1.53-1.12,2.25-1.73a13.72,13.72,0,0,0,1.48-1.37,25.07,25.07,0,0,0,2.94-3.24L399,75.63l-.61,1.55h0l-1.83,4.7-.78,2h11.89A10.47,10.47,0,0,0,412,83a33.19,33.19,0,0,0,5.27-2.54l.89-.67h.09a14.47,14.47,0,0,0,3.2-3l.12-.18a1.13,1.13,0,0,0,0-.26.59.59,0,0,0-.57-.53h0a.45.45,0,0,0-.28,0l-.1.1c-.87.62-2.2,1.73-3.32,2.58a22.82,22.82,0,0,1-5.18,2.59,4,4,0,0,1-1.33.26h-.18a5.15,5.15,0,0,1-2.85-1.14l3-7.81,5.66-14.57,1.08-2.69,3.57-9h1.37a37.23,37.23,0,0,1,6.91.62l.46-1.26a40.31,40.31,0,0,0-7.44-.69Z"/><path class="cls-1" d="M40.74,15.19a38.25,38.25,0,0,0-6.83,6.13l-.69.78c-.17.2-.36.41-.53.65a38.61,38.61,0,0,0-8.64,24.34,38.14,38.14,0,0,0,.21,4h0a49.58,49.58,0,0,0,.6,7.5c.76,4.64,2,9.24,3.06,13.82.46,2,1.07,4.07,1.5,6.13s.69,4.2,1,6.32c.1.9.15,1.73.21,2.68h0c0,.81.08,1.73,0,2.47v.35a10.06,10.06,0,0,1-2.23,5.18,7.35,7.35,0,0,1-1.11,1.12,8.68,8.68,0,0,1-1.61,1.14,12.08,12.08,0,0,1-4.56.87,11.32,11.32,0,0,1-7.34-2.49.82.82,0,0,0-.6-.21,3.89,3.89,0,0,1-3-1.1,4.88,4.88,0,0,1-.52-.59,5.77,5.77,0,0,1-1-2.78,4,4,0,0,1,1-3.2.9.9,0,0,1,.17-.3A.17.17,0,0,1,10,88a3.69,3.69,0,0,1,3.16-.2,6,6,0,0,1,1.73.88,4.6,4.6,0,0,1,.74.65,2.27,2.27,0,0,1,.41.47,2.44,2.44,0,0,1,.28.43l.1.21v.12a2,2,0,0,1,.21.57,2.86,2.86,0,0,0,.16.64,4.57,4.57,0,0,1,0,.74.74.74,0,0,1,0,.21.41.41,0,0,0,.17.22,2.32,2.32,0,0,0,1.73.73A2.44,2.44,0,0,0,20,93.26l.76-.52c.5-.42.92-.78,1.35-1.21a12,12,0,0,0,1.09-1.16,9.79,9.79,0,0,0,1.48-2.78,5.76,5.76,0,0,0,.3-1,4.24,4.24,0,0,0,.15-1v-.14a.38.38,0,0,0,0-.15v-.78h0v-1a17.57,17.57,0,0,0-1.05-4.63l-.38-.94c-1.73-3.82-4.23-7.15-6.13-10.85a35.65,35.65,0,0,1-3.81-17.57,37.6,37.6,0,0,1,.87-6.68c.21-.95.45-1.9.74-2.87A38.52,38.52,0,0,1,17.1,35.4a46.13,46.13,0,0,1,2.24-4.3,43.3,43.3,0,0,1,2.72-4,47.54,47.54,0,0,1,4.4-5,35.43,35.43,0,0,1,3.6-3.1l.14-.12v-1.1a15.34,15.34,0,0,0-.38-3.37,13.21,13.21,0,0,0-2.33-5.18A28.84,28.84,0,0,0,25.33,6.7l-.11-.15a8.9,8.9,0,0,0-6.37-2.8A9,9,0,0,0,17,4a9.88,9.88,0,0,0-1.73.61,11.33,11.33,0,0,0-1.54.91A7.26,7.26,0,0,0,12.23,7a9.88,9.88,0,0,0-1.29,8.5,3.42,3.42,0,0,1,.34.87.41.41,0,0,1,0,.22.26.26,0,0,1,0,.21V17a.61.61,0,0,1,0,.19v.28a.81.81,0,0,1,0,.22.89.89,0,0,1,0,.23.61.61,0,0,1,0,.19,3.11,3.11,0,0,1-.81,1.27,2.76,2.76,0,0,1-.29.3l-.14.15a7.48,7.48,0,0,1-4.37,1.73,7.1,7.1,0,0,1-4.34-1.73.18.18,0,0,1-.16-.15,1.81,1.81,0,0,1-.25-.3A2.85,2.85,0,0,1,0,17.47v-.56A2.85,2.85,0,0,1,.92,15a1.33,1.33,0,0,1,.29-.29.5.5,0,0,1,.15-.14A7.24,7.24,0,0,1,5.1,12.75a4.91,4.91,0,0,1,1.53,0,5.2,5.2,0,0,1,.68.17A13,13,0,0,1,8.66,9a13.24,13.24,0,0,1,6.08-5.33,11.72,11.72,0,0,1,2.36-.8,5.68,5.68,0,0,1,1.23-.1,14.22,14.22,0,0,1,1.73.1L21.18,3a4.12,4.12,0,0,1,1.5.48,18.52,18.52,0,0,1,5.57,4.89h0a24.51,24.51,0,0,1,1.57,2.47A20.78,20.78,0,0,1,31.15,14a.89.89,0,0,0,0,.23A16.89,16.89,0,0,1,31.77,17a3.21,3.21,0,0,1,0,.62c.21-.15.43-.27.64-.41a35.89,35.89,0,0,1,3.78-2l.44-.21a5.13,5.13,0,0,1,1.93-.4A4.77,4.77,0,0,1,40.74,15.19Z"/><path class="cls-5" d="M25.1,84.46v.75a.38.38,0,0,1,0,.15Z"/><path class="cls-6" d="M11.28,17.92Z"/><path class="cls-6" d="M11.42,17.19v.28a1,1,0,0,0,0-.25h0Z"/><path class="cls-6" d="M11.4,17v-.09a.49.49,0,0,0,0-.17.28.28,0,0,0,0-.22.23.23,0,0,1,0,.2v.19a.24.24,0,0,1,0,.12Z"/><path class="cls-1" d="M55.53,40.44v-.15a6.05,6.05,0,0,0-.19-1.4h0a5.61,5.61,0,0,0-.82-1.73,4.59,4.59,0,0,0-.6-.72l-.3-.28a4.26,4.26,0,0,0-2.29-.76h0a7.68,7.68,0,0,0-5.08,1.28,7.52,7.52,0,0,0-.93.76,11.52,11.52,0,0,0-2.18,2.87l-4.65,8.63a8,8,0,0,0-1,3.8v1.73a8.09,8.09,0,0,0,1,3.91l.08.12a6.79,6.79,0,0,0,1.73,1.38l1.37.48c4.54.75,7.39.21,9.15-3.06L53,54.66a11.27,11.27,0,0,0,2.41-5.37,6.41,6.41,0,0,0,.11-.88h0a19,19,0,0,0,.12-2.13V41.91A12.12,12.12,0,0,0,55.53,40.44ZM49.2,52.54c-3.16,1.72-6.44,1.91-8-1.14-1.14-2.2-.1-5.77,3.94-7.92.61-.31,3.8-2.52,6.27-1.07a4.6,4.6,0,0,1,2,2.92c.58,2.78-1.56,5.74-4.08,7.15Z"/><path class="cls-1" d="M94.93,15.19a38.25,38.25,0,0,1,6.83,6.13l.69.78a5.56,5.56,0,0,1,.53.65,38.61,38.61,0,0,1,8.64,24.34,38.14,38.14,0,0,1-.21,4h0a48.32,48.32,0,0,1-.6,7.5c-.74,4.64-2,9.24-3.06,13.82-.47,2-1.07,4.07-1.5,6.13s-.69,4.2-1,6.32c-.1.9-.16,1.73-.21,2.68h0v2.82a10.06,10.06,0,0,0,2.23,5.18,7.41,7.41,0,0,0,1.12,1.12A8.58,8.58,0,0,0,110,97.78a12.08,12.08,0,0,0,4.56.87,11.34,11.34,0,0,0,7.28-2.39.88.88,0,0,1,.6-.21,4,4,0,0,0,3-1.1,7.19,7.19,0,0,0,.51-.59,5.81,5.81,0,0,0,1-2.78,4,4,0,0,0-.88-3.3.81.81,0,0,0-.28-.24.2.2,0,0,0-.13-.09,3.65,3.65,0,0,0-3.11-.17,5.66,5.66,0,0,0-1.73.88,4,4,0,0,0-.76.66,4.58,4.58,0,0,0-.42.46,2.43,2.43,0,0,0-.26.44.38.38,0,0,0-.1.2v.12a2.78,2.78,0,0,0-.21.57,4.56,4.56,0,0,0-.14.64,2.36,2.36,0,0,0,0,.75v.2a.6.6,0,0,1-.19.23,2.24,2.24,0,0,1-1.72.72,2.57,2.57,0,0,1-1.32-.36l-.76-.52a15.4,15.4,0,0,1-1.34-1.21,13.13,13.13,0,0,1-1.09-1.15A9.5,9.5,0,0,1,111,87.62a7.12,7.12,0,0,1-.29-1,4.45,4.45,0,0,1-.19-1.09v-.14a.38.38,0,0,1,0-.15v-.78h0v-1a17.49,17.49,0,0,1,1-4.63l.38-.94c1.73-3.82,4.24-7.15,6.15-10.85a35.42,35.42,0,0,0,3.65-17.64,37.14,37.14,0,0,0-.83-6.56c-.21-1-.45-1.9-.74-2.87a36.85,36.85,0,0,0-1.73-4.56,44.23,44.23,0,0,0-5-8.33,49.15,49.15,0,0,0-4.35-5,34.54,34.54,0,0,0-3.63-3.1.53.53,0,0,0-.14-.12V17.8a14.74,14.74,0,0,1,.36-3.37A13.44,13.44,0,0,1,108,9.25a27.35,27.35,0,0,1,2.15-2.53l.13-.15A8.62,8.62,0,0,1,118.74,4a9.88,9.88,0,0,1,1.73.61,9.08,9.08,0,0,1,1.53.91A6.37,6.37,0,0,1,123.45,7a9.68,9.68,0,0,1,1.73,5.63,9.33,9.33,0,0,1-.43,2.87,2.81,2.81,0,0,0-.41.81.45.45,0,0,0,0,.23.26.26,0,0,0,0,.21V17a.61.61,0,0,0,0,.19v.27a.89.89,0,0,0,0,.23v.22a.61.61,0,0,0,0,.19,3.08,3.08,0,0,0,.81,1.28,2.76,2.76,0,0,0,.29.3l.14.15A7.53,7.53,0,0,0,130,21.51a7.19,7.19,0,0,0,4.33-1.73s.11,0,.14-.15a2.13,2.13,0,0,0,.3-.3,2.9,2.9,0,0,0,.93-1.86v-.56a2.81,2.81,0,0,0-.92-1.93,2.06,2.06,0,0,0-.29-.3.86.86,0,0,0-.14-.13,7.42,7.42,0,0,0-1.62-1.09,7,7,0,0,0-2.13-.71,4.84,4.84,0,0,0-1.52,0c-.23.05-.46.1-.69.17A13.38,13.38,0,0,0,127,9.05a13.26,13.26,0,0,0-6-5.4,11.69,11.69,0,0,0-2.38-.8,5.68,5.68,0,0,0-1.23-.1,14.22,14.22,0,0,0-1.73.1L114.49,3a4.39,4.39,0,0,0-1.5.48,18.52,18.52,0,0,0-5.57,4.89h0a20,20,0,0,0-1.59,2.47A21.87,21.87,0,0,0,104.5,14a.89.89,0,0,1,0,.23,18.08,18.08,0,0,0-.62,2.81v.62c-.21-.15-.43-.27-.64-.41a35.6,35.6,0,0,0-3.76-2,.63.63,0,0,1-.44-.14,5.13,5.13,0,0,0-1.93-.4A4.87,4.87,0,0,0,94.93,15.19Z"/><path class="cls-1" d="M80,41.91v4.34a16.18,16.18,0,0,0,.14,2.09h0a2.62,2.62,0,0,0,.1.88,11.18,11.18,0,0,0,2.44,5.37l2.18,2.65c1.72,3.26,4.63,3.8,9.17,3l1.35-.48a6.23,6.23,0,0,0,1.73-1.38.83.83,0,0,0,.08-.12,8,8,0,0,0,1-3.89V52.69a8.16,8.16,0,0,0-1-3.8l-4.64-8.64a11.91,11.91,0,0,0-2.18-2.86,7.52,7.52,0,0,0-.93-.76,7.6,7.6,0,0,0-5.07-1.28h0a4.44,4.44,0,0,0-2.28.74l-.29.28a5.28,5.28,0,0,0-.61.72,5.54,5.54,0,0,0-.79,1.73h0a5.11,5.11,0,0,0-.17,1.4v.15A8,8,0,0,0,80,41.91Zm2.3,3.46a4.57,4.57,0,0,1,1.94-2.92c2.47-1.45,5.66.76,6.27,1.07,4,2.14,5.18,5.72,3.94,7.91-1.56,3.06-4.82,2.87-8,1.14-2.63-1.5-4.75-4.46-4.15-7.29Z"/><circle class="cls-1" cx="67.83" cy="52" r="2.73"/><path class="cls-7" d="M34.1,97.68h-.2a.15.15,0,0,0,.13,0Z"/><path class="cls-1" d="M34,97.66h-.12A.24.24,0,0,0,34,97.66Z"/><path class="cls-1" d="M71.16,96.64a4.53,4.53,0,0,1-.74.09H68Z"/><path class="cls-1" d="M68,96.73H65.55a4.78,4.78,0,0,1-.76-.09Z"/><path class="cls-1" d="M102.6,96.94a.76.76,0,0,1-.41.67h-.12a.22.22,0,0,1-.16,0h0a15.28,15.28,0,0,1-4.3.59,15.05,15.05,0,0,1-11.37-4.87l-.12-.14a19.79,19.79,0,0,1-1.42-1.73c-.19-.24-.44-.76-.82-.76s-.61.41-.71.55c-.49.69-1,1.35-1.52,2l-.14.16a13.91,13.91,0,0,1-5.41,3.8,15.61,15.61,0,0,1-6,1.14H65.94a15.61,15.61,0,0,1-6-1.14,13.92,13.92,0,0,1-5.44-3.7l-.15-.15a24.36,24.36,0,0,1-1.51-2c-.1-.14-.39-.56-.71-.56s-.63.52-.82.76c-.47.59-.94,1.14-1.42,1.73l-.12.14a15,15,0,0,1-11.4,4.87,15.28,15.28,0,0,1-4.3-.59h0a.17.17,0,0,1-.14,0h-.12a.74.74,0,0,1-.37-1v0a.72.72,0,0,1,.69-.43.71.71,0,0,1,.29,0,16.16,16.16,0,0,0,3.46.38,15.57,15.57,0,0,0,4.92-.82,14.41,14.41,0,0,0,4.08-2.21A13.69,13.69,0,0,0,48.53,92a16.36,16.36,0,0,1,2.11-2.59A2.26,2.26,0,0,1,52,88.92h.27a2.5,2.5,0,0,1,1.44.64c1.26,1,1.9,2.56,3.12,3.61.59.47,1.14,1,1.73,1.38a14.15,14.15,0,0,0,2.11,1.11,15.21,15.21,0,0,0,4.09,1,4.78,4.78,0,0,0,.76.09H70.4a4.53,4.53,0,0,0,.74-.09,14.53,14.53,0,0,0,4.09-1.12,12,12,0,0,0,2.09-1.11A21.31,21.31,0,0,0,79,93.1c1.23-1,1.87-2.59,3.13-3.61a2.47,2.47,0,0,1,1.43-.64h.28a2.12,2.12,0,0,1,1.31.55,16.55,16.55,0,0,1,2.2,2.6,12.26,12.26,0,0,0,1.72,1.58,14,14,0,0,0,4.06,2.22,15.58,15.58,0,0,0,4.93.81,16,16,0,0,0,3.45-.38.76.76,0,0,1,.3,0,.74.74,0,0,1,.77.7Z"/><path class="cls-1" d="M287.89,46.28l-1.23,3.25-2.73,7-5.41,13.82h0L274.36,81.2l-.26.67h-8.74l.62-1.61,1.47-3.76L270,69.81l6.77-17.27,1.08-2.82.19-.17c-3.87,1.5-9.94,8.64-10.56,9.36l-.92-1v-.1A60.62,60.62,0,0,1,274,50.22a16.77,16.77,0,0,1,9.77-4.08h2.08A20,20,0,0,1,287.89,46.28Z"/><path class="cls-1" d="M306.89,76a8.63,8.63,0,0,1-5.18,4.65c-1.24.55-2.54.76-3.46,1.14h-10.5l6.05-15.55a63.33,63.33,0,0,1-6.62,8c-2.94,3.18-5.3,6-8.12,7.34a5.08,5.08,0,0,1-1.73.3h-1.72l.95-2.47.89-2.32,1.55-4,3.84-9.85,2.45-6.36L288,49.86l.91-2.39.57-1.46h1.64l-.7,1.81-1,2.57-8.95,23-1.73,4.22-.86,2.19-.3.73a2.29,2.29,0,0,0,1-.23c2.85-1.33,5.18-4.25,8.25-7.36a94.44,94.44,0,0,0,8.33-10.17L301.61,46h1.55l7.64,3.24L299,79.92a20.33,20.33,0,0,0,2.13-.69c4-1.73,5.09-4,5.53-5.82C306.82,73,307.05,74.27,306.89,76Z"/><path class="cls-1" d="M368.9,75.65l1,.73a11.08,11.08,0,0,1-9.48,5.46,4,4,0,0,1-.69,0H349.3l1.92-5,.11-.21.57-1.45,1.72-4.41,7.48-19.14v-.1l.7-1.73L350.91,61.73h0l-1.47,3.78-.34.88-6,15.41H332.62l3-7.63L339,65.53l1.47-3.7.26-.62a8,8,0,0,0,.57-1.5V59.6a11.3,11.3,0,0,0,.41-3,.41.41,0,0,0,0-.22,10.32,10.32,0,0,0-2.48-6.67h0l-.61,1.48-1.19,3.1-2.87,7.51-.86,2.2-1,2.72-.23.6-.36,1L326.75,81.9H325.2l2.54-6.55,2.8-7.15.29-.78,6.62-17h0l.62-1.54v-.12h0a2.17,2.17,0,0,0-.55-.45h-.11l-.17-.14a5.65,5.65,0,0,0-.57-.38h0l-.14.33L336,49.71l-1.3,3.3L329,67.31h0l-.22.58h0l-5.46,14H313l5.91-15.2,2.37-6.08h0l.4-1h0L323.84,54c-.41.29-.81.6-1.19.93-.23.19-.47.4-.68.61l-.32.31c-.4.32-.75.69-1.13,1A70.42,70.42,0,0,0,314.7,63l-.12-1.83a74.37,74.37,0,0,1,6.25-6.91l2-1.73h0c.57-.5,1.1-1,1.72-1.48a4.81,4.81,0,0,1,.73-.55,28.46,28.46,0,0,1,2.63-1.87c.7-.47,1.46-.92,2.21-1.33h0l.19-.1.22-.11h.21l.81-.29a7.08,7.08,0,0,1,1-.28H333a4.22,4.22,0,0,1,.62-.1h2.15l1,.15.44.11h.17a8.8,8.8,0,0,1,1.43.45h.12a9.69,9.69,0,0,1,1.25.62h0a9.86,9.86,0,0,1,1,.69,10.42,10.42,0,0,1,.95.81h0c.88.69,1.73,1.44,2.54,2.2a28,28,0,0,1,3.45,4,25.44,25.44,0,0,1,2.35,4.66l2-2.19L354.09,56l4.58-5,.74-.81,3.46-3.87.36-.38h10.36l-4.07,10.5-.3.76-9,23.65A10.7,10.7,0,0,0,368.9,75.65Z"/><path class="cls-1" d="M429.93,45.57l-.46,1.27a36.41,36.41,0,0,0-6.91-.63h-1.37l-3.56,9.18-1.07,2.69-5.67,14.57-3,7.8a5,5,0,0,0,2.85,1.14,3.85,3.85,0,0,0,1.5-.25,23.56,23.56,0,0,0,5.19-2.6c1.12-.81,2.45-1.95,3.31-2.57l.11-.1a.47.47,0,0,1,.33,0,.58.58,0,0,1,.57.53,1.13,1.13,0,0,1,0,.26.18.18,0,0,1-.12.17,14.47,14.47,0,0,1-3.2,3h-.09l-.9.67a33,33,0,0,1-5.33,2.56,10.81,10.81,0,0,1-4.27.88H395.93l.78-2,1.83-4.7h0l.61-1.56,1.24-3.21a26.63,26.63,0,0,1-2.94,3.25,12.81,12.81,0,0,1-1.45,1.3A24.48,24.48,0,0,1,393.72,79h0a17.87,17.87,0,0,1-6.32,2.92h-1.56l.45-1.14L387,79l.45-1.1,4.73-12.1,1.42-3.71,1.95-5,.92-2.32,2.07-5.34a11.59,11.59,0,0,0-1.62-.69L395.57,52l-4.46,11.45L383.94,82H373.46l8.31-21.34,5-12.78L386,48h-.11a15.73,15.73,0,0,0-3.45,1.28,17,17,0,0,0-2.7,1.73l-.67-1.3a19.29,19.29,0,0,1,7.5-3.44,21.13,21.13,0,0,1,3.64-.31,19,19,0,0,1,6.5,1.11,14.67,14.67,0,0,1,2.21.91,11,11,0,0,1,1.26.71L399.7,50l-2,5.29-5.58,14.37L388.83,78l-.43,1.11-.47,1.17a19.56,19.56,0,0,0,2.54-1.08h0a19.83,19.83,0,0,0,2.21-1.32h0l.33-.26a24.51,24.51,0,0,0,3.73-3,30.84,30.84,0,0,0,5.71-7.39l3.71-9.5.43-1.11.24-.64.82-2.12.15-.38.52-1.37,1.49-3.78.58-1.52a37.05,37.05,0,0,1,11.2-1.88h.86A39.92,39.92,0,0,1,429.93,45.57Z"/><path class="cls-1" d="M212.43,26.47a25.91,25.91,0,0,1,10,7.08,9.64,9.64,0,0,1,1,1.12l.87,1.09A22.51,22.51,0,0,1,227.66,45l.19,2.49,1.63,19.63.12,1.47-5.72,7.49L223,65.94l-.72-8.77-.85-10.89-.6-7.5-.11.28v-.31l-1.21-5.63-2.09,5.37-6.3,16.19-1.73,4.54-7.26,18.66L201.32,80h-.74a46.36,46.36,0,0,0-6.12.28l1-2.66L199.3,68l.29-.94,2.87-7.37.9-2.35,1-2.51,8.9-22.89.86-2.21v-.09h0l.31-1-.69-.76a12.64,12.64,0,0,0-1.36-1.28m-26.24,4.14a9.34,9.34,0,0,0-1.3,2.94v.14a8.54,8.54,0,0,0-.21,1.23v1a4.18,4.18,0,0,0,0,1l.31,1.35h3.56a1,1,0,0,1,1,1h0v2.27a1,1,0,0,1-.17.55,1,1,0,0,1-.85.47h-2.81a6.57,6.57,0,0,1-1-1.45,9.21,9.21,0,0,1,1.45-10.52m73.09,2.87L265,36.07,248,79.76l-.13.35h-6.78l16.62-42.74,1.47-3.79h0M172.36,75.91a1.58,1.58,0,0,1,1.09.55,3.63,3.63,0,0,1,.8,2.18v.69a6.21,6.21,0,0,0,2.28,3.7,11.33,11.33,0,0,1-2-.28,8.7,8.7,0,0,1-2-1A9.23,9.23,0,0,1,171,80.6a3.64,3.64,0,0,1-.41-1.47V79a.61.61,0,0,1,0-.19c0-1.52.88-2.87,1.88-2.87m30.37-53a27.34,27.34,0,0,0-16.34,5.32l-.54.36-.12.11A10.32,10.32,0,0,0,181.87,37a10.51,10.51,0,0,0,1.26,5,8.86,8.86,0,0,0,1.46,2.08h.13a2.63,2.63,0,0,0,1.1.24h2.61a2.77,2.77,0,0,0,2.28-1.21,2.71,2.71,0,0,0,.47-1.54v-2.2a2.75,2.75,0,0,0-2.75-2.73h-2.14a3.75,3.75,0,0,1,0-.67v-.88a6.56,6.56,0,0,1,.22-1.07,7.59,7.59,0,0,1,1.56-3A14.39,14.39,0,0,1,192,27a15.6,15.6,0,0,1,9.14-2.89,15.92,15.92,0,0,1,9.45,3.11A15.09,15.09,0,0,1,212.52,29h0l-.86,2.19-8.92,23-1,2.59-.9,2.35L198,66.36l-.41,1.12-3.78,9.69-1.54,3.94-.33.14-1,.38a9.06,9.06,0,0,1-1,.34c-.34.11-.71.23-1.05.32l-1.09.26-1.14.2-1.16.18h-2.6c-2.92-.09-6.11-.61-6.91-4.06a.61.61,0,0,0,0-.19,5.14,5.14,0,0,0-1.23-3.46,3.27,3.27,0,0,0-2.38-1.14,4.19,4.19,0,0,0-3.61,4.6,2.09,2.09,0,0,0,0,.5,5,5,0,0,0,.81,2.45,11.46,11.46,0,0,0,2,1.54,10.29,10.29,0,0,0,2.47,1.15,28.1,28.1,0,0,0,5.18.45h.1a31.12,31.12,0,0,0,10.47-1.72,29.75,29.75,0,0,1,10.52-1.33h1.94l1.26-3.27,7.26-18.66,1.72-4.54,6.31-16.19a13.82,13.82,0,0,1,.31,3.08,12.18,12.18,0,0,1,0,1.48l-3.21,8.29-3,7.83-4.63,11.94-2.6,6.63-1.33,3.46h1.56l1.42-3.63,2.59-6.65,4.63-11.89,5.18-13.18.88,10.82.73,8.77,1,12.49.16,2.16,8.84-11.59,24.72-32.32-17,43.64-.57,1.45h17.77l.61-1.45h-7.34l17.6-45.27-1.33-.55-6.1-2.63-.2-.08H258L231.22,67,229.6,47.39l-.19-2.52a24.22,24.22,0,0,0-4.63-11.27h0c-.33-.43-.69-.84-1.07-1.26a27.64,27.64,0,0,0-20.87-9.47Z"/><path class="cls-1" d="M249.59,80.39h7.34l-.61,1.45H238.55l.57-1.45,17-43.64L231.4,69.14l-8.85,11.59-.16-2.16-1-12.49-.72-8.78-.89-10.81L214.6,59.67,210,71.56l-2.6,6.65L206,81.84h-1.56l1.33-3.46,2.59-6.63L213,59.81,216,52s3.21-8.25,3.21-8.29a12.18,12.18,0,0,0,0-1.48,14.5,14.5,0,0,0-.31-3.08l-6.31,16.19-1.73,4.54L203.6,78.52l-1.26,3.26c-4.32,0-8.4-.13-12.46,1.34a31.12,31.12,0,0,1-10.47,1.72h-.1a28.1,28.1,0,0,1-5.18-.45,11.87,11.87,0,0,1-4.48-2.69,5,5,0,0,1-.81-2.45,2.17,2.17,0,0,1,0-.51,4.19,4.19,0,0,1,3.61-4.59,3.27,3.27,0,0,1,2.38,1.14,5.13,5.13,0,0,1,1.23,3.45.61.61,0,0,1,0,.19c.76,3.46,4,4,6.91,4.06h2.59l1.16-.17,1.14-.21,1.09-.26A3.51,3.51,0,0,0,190,82c.35-.12.68-.2,1-.34l1-.38.33-.14,1.53-3.94,3.79-9.69.41-1.12L201,59l.9-2.35,1-2.53,8.86-23,.87-2.2h0a14.53,14.53,0,0,0-1.94-1.73,15.92,15.92,0,0,0-9.45-3.11A15.59,15.59,0,0,0,192,27a14.43,14.43,0,0,0-3.94,4,7.72,7.72,0,0,0-1.55,3.06,5.65,5.65,0,0,0-.22,1.07V36a3.75,3.75,0,0,0,0,.67h2.19a2.76,2.76,0,0,1,2.73,2.68v2.27a2.68,2.68,0,0,1-.47,1.53,2.75,2.75,0,0,1-2.28,1.21h-2.61a2.59,2.59,0,0,1-1.1-.24.13.13,0,0,1-.12,0,8.85,8.85,0,0,1-1.47-2.07,10.57,10.57,0,0,1-1.24-5,10.36,10.36,0,0,1,3.85-8.29l.12-.11.54-.36a27.74,27.74,0,0,1,37.24,4.23c.38.42.75.83,1.07,1.26h0A24.12,24.12,0,0,1,229.37,45l.19,2.52L231.22,67,258,31.86h1.58l.2.08,6.1,2.63,1.33.55Z"/></svg>