<svg id="logoImg" xmlns="http://www.w3.org/2000/svg" viewBox="0 0 253.53 57.15"><defs><style>.cls-1,.cls-6,.cls-7,.cls-8{fill:#38445b;}.cls-2,.cls-6{opacity:0.31;}.cls-3,.cls-7{opacity:0.03;}.cls-4,.cls-8{opacity:0.35;}.cls-5{fill:none;stroke:#38445b;stroke-miterlimit:10;opacity:0.19;}</style></defs><title>logoImg</title><polygon class="cls-1" points="253.53 0 253.51 0.04 253.47 0.04 253.53 0"/><path class="cls-1" d="M5.58,7.37a6,6,0,0,0,.25,1.11l0,.16L6,8.75,6,8.9v.19l0,0v.2l0,.09v0a1.16,1.16,0,0,1-.19.28l-.06,0,0,0-.12.1,0,0a3.29,3.29,0,0,1-1.84.78A3.17,3.17,0,0,1,2,10l0,0,0-.06-.12-.09,0-.05,0,0a.72.72,0,0,1-.24-.41V9a.72.72,0,0,1,.24-.41l.05,0,0-.05.12-.09,0,0a3.2,3.2,0,0,1,.7-.49,2.91,2.91,0,0,1,.93-.31h.08l.37,0h.11l.19,0,.1,0,1,.28.14-.61M20.51,9.65c-.4.39-.78.8-1.15,1.21l-.4.47c-.13.14-.26.29-.35.41a23.59,23.59,0,0,0-5.17,14.72,22,22,0,0,0,.12,2.36,30.17,30.17,0,0,0,.37,4.47c.3,1.92.76,3.83,1.21,5.68.19.8.39,1.6.57,2.4.12.54.26,1.08.4,1.62s.33,1.27.46,1.9c.24,1.14.38,2.27.53,3.47v.11c.06.44.09.92.12,1.47V50c0,.41,0,.86,0,1.3a.28.28,0,0,0,0,.09v.07a4.74,4.74,0,0,1-1.08,2.49,2.84,2.84,0,0,1-.49.49l0,0,0,0a3.51,3.51,0,0,1-.69.5,6.14,6.14,0,0,1-2.2.4,5.55,5.55,0,0,1-3.6-1.2,1.47,1.47,0,0,0-1-.36H8a1.3,1.3,0,0,1-.9-.36c-.07-.08-.15-.15-.19-.21a2.47,2.47,0,0,1-.41-1.14A1.4,1.4,0,0,1,6.72,51l0,0,.06,0a.73.73,0,0,1,.37-.08,1.66,1.66,0,0,1,.56.1,2.67,2.67,0,0,1,.71.37,2,2,0,0,1,.24.21l.05.06.06,0,.09.1A.64.64,0,0,1,9,51.9l0,.16.07.07,0,0v.07a.86.86,0,0,1,.05.23.72.72,0,0,1,0,.13l0,.24,0,.08v.2l.1.21a1.34,1.34,0,0,0,.33.42,2.33,2.33,0,0,0,1.67.68A2.5,2.5,0,0,0,12.59,54a5.88,5.88,0,0,0,.51-.36,9.84,9.84,0,0,0,.83-.73,7.59,7.59,0,0,0,.73-.79,6.43,6.43,0,0,0,1-1.87,4.75,4.75,0,0,0,.21-.74,4.37,4.37,0,0,0,.13-.73c0-.09,0-.17,0-.23s0-.32,0-.54,0-.4,0-.62a11.26,11.26,0,0,0-.68-3l-.09-.22-.14-.35A30.41,30.41,0,0,0,13,40.11c-.54-.88-1-1.7-1.49-2.57a19.49,19.49,0,0,1-2.09-9.68,21.1,21.1,0,0,1,.46-3.62c.11-.52.25-1,.41-1.59a19.07,19.07,0,0,1,.93-2.51,21.5,21.5,0,0,1,1.24-2.38A21.79,21.79,0,0,1,14,15.52a24.34,24.34,0,0,1,2.48-2.8,19.8,19.8,0,0,1,2-1.71l.08,0,.34-.26.64-.44.14-.09.21-.14.64-.38M11.08.8a3.46,3.46,0,0,0-.71.06A6.9,6.9,0,0,0,9,1.32,7.71,7.71,0,0,0,5.48,4.45,7.6,7.6,0,0,0,4.7,6.73c-.08,0-.3-.09-.39-.1a2.81,2.81,0,0,0-.65-.06l-.24,0A4.14,4.14,0,0,0,1.26,7.66a.34.34,0,0,0-.09.08A1.37,1.37,0,0,0,1,7.91,1.66,1.66,0,0,0,.47,9v.29A1.66,1.66,0,0,0,1,10.43a1.37,1.37,0,0,0,.17.17s.06.06.09.09a4.11,4.11,0,0,0,2.51,1,4.34,4.34,0,0,0,2.53-1s.06,0,.08-.09a1.37,1.37,0,0,0,.17-.17A1.88,1.88,0,0,0,7,9.69a.43.43,0,0,0,0-.11.5.5,0,0,0,0-.13.62.62,0,0,0,0-.13V9.16a.41.41,0,0,0,0-.11V8.91a.16.16,0,0,0,0-.12.35.35,0,0,0,0-.13,1.87,1.87,0,0,0-.24-.47,5.52,5.52,0,0,1-.25-1.66,5.63,5.63,0,0,1,1-3.26,4,4,0,0,1,.84-.85,6.14,6.14,0,0,1,.89-.53,5.64,5.64,0,0,1,1-.35,5.09,5.09,0,0,1,1.1-.13A5.18,5.18,0,0,1,15.07,3a.76.76,0,0,1,.09.09c.21.21,1.05,1.19,1.25,1.46a7.63,7.63,0,0,1,1.35,3,8.76,8.76,0,0,1,.22,2c0,.21,0,.43,0,.64l-.08.07A19.85,19.85,0,0,0,15.77,12a27.25,27.25,0,0,0-2.58,2.91,25.67,25.67,0,0,0-1.57,2.33,26.78,26.78,0,0,0-1.3,2.49,22.55,22.55,0,0,0-1,2.64c-.17.56-.31,1.11-.43,1.66a22.07,22.07,0,0,0-.48,3.8A20.6,20.6,0,0,0,10.64,38c1.1,2.14,2.59,4.07,3.55,6.28l.22.54A10.1,10.1,0,0,1,15,47.5c0,.18,0,.36,0,.54v0c0,.17,0,.31,0,.45a.28.28,0,0,1,0,.09s0,.06,0,.08a2.68,2.68,0,0,1-.11.63,4.11,4.11,0,0,1-.17.6,5.56,5.56,0,0,1-.86,1.61,6.59,6.59,0,0,1-.63.67c-.25.25-.49.46-.78.7l-.44.3a1.45,1.45,0,0,1-.76.21,1.35,1.35,0,0,1-1-.42.32.32,0,0,1-.1-.13.48.48,0,0,0,0-.12,2.06,2.06,0,0,0,0-.43c0-.12-.05-.25-.09-.37a1.46,1.46,0,0,0-.12-.33s0,0,0-.07l-.06-.12a2.13,2.13,0,0,0-.16-.25,1.5,1.5,0,0,0-.24-.27A2.65,2.65,0,0,0,9,50.53a3.55,3.55,0,0,0-1-.51,2.82,2.82,0,0,0-.89-.15,1.63,1.63,0,0,0-.92.25.14.14,0,0,0-.08.05.52.52,0,0,0-.16.14,2.3,2.3,0,0,0-.51,1.91,3.33,3.33,0,0,0,.59,1.61,2.36,2.36,0,0,0,.3.34,2.31,2.31,0,0,0,1.6.65h.18a.47.47,0,0,1,.31.12,6.54,6.54,0,0,0,4.25,1.44,7,7,0,0,0,2.64-.5,5.2,5.2,0,0,0,.93-.66,3.94,3.94,0,0,0,.64-.65,5.72,5.72,0,0,0,1.29-3c0-.07,0-.13,0-.2,0-.48,0-1,0-1.43v0c0-.51-.06-1-.12-1.55-.16-1.23-.31-2.45-.56-3.66s-.6-2.36-.87-3.55c-.6-2.65-1.33-5.31-1.77-8a29.55,29.55,0,0,1-.35-4.34v0a21.72,21.72,0,0,1-.12-2.3,22.38,22.38,0,0,1,5-14.09c.1-.14.21-.26.31-.38l.4-.45A22.58,22.58,0,0,1,24.05,8a2.79,2.79,0,0,0-1.26-.3,3,3,0,0,0-1.12.23L21.42,8a20.38,20.38,0,0,0-2.1,1.16c-.12.08-.25.15-.37.24a2.19,2.19,0,0,0,0-.36,9.86,9.86,0,0,0-.36-1.63,1.3,1.3,0,0,1,0-.13,11.89,11.89,0,0,0-.77-1.8,13.3,13.3,0,0,0-.91-1.43l0,0A10.69,10.69,0,0,0,13.6,1.22a2.4,2.4,0,0,0-.87-.28L12.08.86a8.26,8.26,0,0,0-1-.06Z" transform="translate(-0.47 0.79)"/><g class="cls-2"><path class="cls-1" d="M15,48.1c0,.18,0,.35,0,.52a.28.28,0,0,0,0-.09c0-.14,0-.28,0-.43Z" transform="translate(-0.47 0.79)"/></g><g class="cls-3"><path class="cls-1" d="M7,9.58a.43.43,0,0,1,0,.11.64.64,0,0,1,0-.07v0Z" transform="translate(-0.47 0.79)"/></g><g class="cls-3"><path class="cls-1" d="M7.08,9.16h0a.66.66,0,0,1,0,.14V9.16Z" transform="translate(-0.47 0.79)"/></g><g class="cls-3"><path class="cls-1" d="M7,8.79a.21.21,0,0,1,0,.13.38.38,0,0,1,0,.1V9a.15.15,0,0,0,0-.07V8.91a.16.16,0,0,0,0-.12Z" transform="translate(-0.47 0.79)"/></g><path class="cls-1" d="M29.79,20.65h.34a1.67,1.67,0,0,1,.75.22h0L31,21a1.87,1.87,0,0,1,.25.29,2.39,2.39,0,0,1,.28.58v.1l.06.13a1.7,1.7,0,0,1,.06.46v.27a3.71,3.71,0,0,1,.06.67v.26a3.19,3.19,0,0,0-.95-.86,3.07,3.07,0,0,0-1.59-.42,5.93,5.93,0,0,0-2.89.95l-.12.07-.13.07.3-.55a5.42,5.42,0,0,1,1.06-1.42,4.58,4.58,0,0,1,.43-.34,3.24,3.24,0,0,1,2-.58h0m-6.55,8.29a2.53,2.53,0,0,0,.19.45,3.34,3.34,0,0,0,3.11,1.92,6.09,6.09,0,0,0,2.89-.84,6.22,6.22,0,0,0,1.49-1.14,5.32,5.32,0,0,1-.58.85l-1.26,1.54-.06.07,0,.09a2.56,2.56,0,0,1-2.61,1.41,11.17,11.17,0,0,1-1.58-.14l-.6-.22a2.57,2.57,0,0,1-.61-.49,3.65,3.65,0,0,1-.42-1.72v-1a3.82,3.82,0,0,1,.08-.75m6.55-9.29a4.23,4.23,0,0,0-2.57.75,4.51,4.51,0,0,0-.54.44,6.8,6.8,0,0,0-1.26,1.66l-2.69,5a4.67,4.67,0,0,0-.57,2.2v1A4.67,4.67,0,0,0,22.73,33l.05.07a3.79,3.79,0,0,0,1,.8l.79.28a11.21,11.21,0,0,0,1.82.17,3.52,3.52,0,0,0,3.48-1.94l1.27-1.53a6.53,6.53,0,0,0,1.4-3.11,4.43,4.43,0,0,0,.06-.51h0A9.43,9.43,0,0,0,32.67,26c0-.14,0-.26,0-.38V23.47a6,6,0,0,0-.07-.85v-.09a3.1,3.1,0,0,0-.11-.81v0a3.22,3.22,0,0,0-.47-1,2.89,2.89,0,0,0-.35-.42l-.17-.16a2.5,2.5,0,0,0-1.33-.44h-.38ZM26.54,30.31a2.35,2.35,0,0,1-2.22-1.38c-.66-1.27-.06-3.34,2.28-4.58a5.57,5.57,0,0,1,2.54-.9,2.16,2.16,0,0,1,1.09.28,2.63,2.63,0,0,1,1.13,1.69c.34,1.64-.9,3.35-2.41,4.17a5.19,5.19,0,0,1-2.41.72Z" transform="translate(-0.47 0.79)"/><path class="cls-1" d="M73.89,7.37,74,8l1-.28.11,0,.14,0h0l.07,0a2.74,2.74,0,0,1,.41,0h.08a3,3,0,0,1,.92.3,3.15,3.15,0,0,1,.7.49h0l0,.06.12.1,0,0,0,0A.66.66,0,0,1,78,9v.29a.72.72,0,0,1-.24.41l-.05,0,0,0-.12.1,0,0a3.12,3.12,0,0,1-1.81.77A3.34,3.34,0,0,1,73.85,10l0,0-.12-.09,0-.05,0,0a.8.8,0,0,1-.2-.29v0l0-.09v-.2l0,0V8.9l.11-.18.07-.11,0-.13a6.85,6.85,0,0,0,.24-1.11M59,9.65l.64.38.21.14a.67.67,0,0,1,.14.09l.6.41h0l.39.28L61,11a19.8,19.8,0,0,1,2,1.71,23.71,23.71,0,0,1,2.49,2.81A22.12,22.12,0,0,1,67,17.76a21.5,21.5,0,0,1,1.24,2.38,18.68,18.68,0,0,1,.93,2.52c.16.53.3,1.06.42,1.58A21.06,21.06,0,0,1,70,27.86,19.59,19.59,0,0,1,68,37.54c-.45.87-1,1.69-1.5,2.57a30,30,0,0,0-2.1,3.8l-.09.22-.13.34a10.91,10.91,0,0,0-.68,3c0,.2,0,.4,0,.64s0,.34,0,.5a1.11,1.11,0,0,0,0,.23,4,4,0,0,0,.12.73,5.15,5.15,0,0,0,.2.7,6.61,6.61,0,0,0,1,1.92,8.29,8.29,0,0,0,.7.76c.29.28.55.51.87.77a6,6,0,0,0,.53.36,2.42,2.42,0,0,0,1.29.37,2.37,2.37,0,0,0,1.68-.68,1.46,1.46,0,0,0,.32-.42l.11-.21v-.19l0-.09,0-.24a.72.72,0,0,1,0-.13,1.55,1.55,0,0,1,0-.23v-.06s0,0,0,0l.07-.07,0-.16.07-.12.1-.12.06,0,0-.06a1.5,1.5,0,0,1,.27-.22,2.6,2.6,0,0,1,.68-.36,1.7,1.7,0,0,1,.56-.1.71.71,0,0,1,.37.08l0,0,0,0A1.38,1.38,0,0,1,73,52.12a2.44,2.44,0,0,1-.41,1.14l-.17.18a1.31,1.31,0,0,1-.91.38h-.19a1.47,1.47,0,0,0-1,.36,5.55,5.55,0,0,1-3.6,1.2,6.14,6.14,0,0,1-2.2-.4,3.84,3.84,0,0,1-.69-.5l0,0,0,0a2.69,2.69,0,0,1-.5-.51,4.66,4.66,0,0,1-1.06-2.47v-.07a.28.28,0,0,1,0-.09c0-.44,0-.9,0-1.34s.07-1,.12-1.47v-.12c.15-1.2.29-2.33.53-3.47.14-.63.3-1.27.46-1.9s.28-1.08.41-1.62c.18-.8.37-1.6.56-2.4.45-1.85.91-3.76,1.22-5.68a31.13,31.13,0,0,0,.36-4.47A22,22,0,0,0,66,26.46a23.54,23.54,0,0,0-5.14-14.68c-.12-.16-.25-.31-.36-.43l-.41-.47c-.37-.42-.75-.84-1.16-1.23M68.39.8a8.26,8.26,0,0,0-1,.06l-.65.08a2.47,2.47,0,0,0-.87.28,10.69,10.69,0,0,0-3.22,2.83l0,0a12,12,0,0,0-.92,1.43,11.89,11.89,0,0,0-.77,1.8,1.3,1.3,0,0,1,0,.13,9.86,9.86,0,0,0-.36,1.63c0,.12,0,.24,0,.36-.12-.09-.25-.16-.37-.24A20.38,20.38,0,0,0,58.05,8C58,8,57.88,8,57.8,7.92a3,3,0,0,0-1.12-.23,2.79,2.79,0,0,0-1.26.3,22.23,22.23,0,0,1,3.95,3.55l.4.45a3.93,3.93,0,0,1,.31.38,22.38,22.38,0,0,1,5,14.09,21.72,21.72,0,0,1-.12,2.3v0a28.24,28.24,0,0,1-.35,4.34c-.43,2.69-1.17,5.35-1.77,8-.27,1.19-.62,2.36-.87,3.55s-.4,2.43-.56,3.66c-.06.52-.09,1-.12,1.55v0c0,.47,0,1,0,1.43,0,.07,0,.13,0,.2a5.72,5.72,0,0,0,1.29,3,4,4,0,0,0,.65.65,4.79,4.79,0,0,0,.92.66,7,7,0,0,0,2.64.5A6.54,6.54,0,0,0,71,54.93a.47.47,0,0,1,.31-.12h.19a2.32,2.32,0,0,0,1.6-.65c.1-.11.21-.22.3-.34A3.42,3.42,0,0,0,74,52.22a2.3,2.3,0,0,0-.51-1.91.52.52,0,0,0-.16-.14.14.14,0,0,0-.08-.05,1.63,1.63,0,0,0-.92-.25,2.71,2.71,0,0,0-.88.15,3.27,3.27,0,0,0-1,.51,2.36,2.36,0,0,0-.44.38,2,2,0,0,0-.24.27,1.28,1.28,0,0,0-.15.25.23.23,0,0,0-.06.12s0,.05,0,.07a1.46,1.46,0,0,0-.12.33,2.45,2.45,0,0,0-.08.37,1.24,1.24,0,0,0,0,.43s0,.08,0,.12a.35.35,0,0,1-.11.13,1.33,1.33,0,0,1-1,.42,1.48,1.48,0,0,1-.76-.21l-.44-.3c-.29-.24-.53-.45-.78-.7a7.94,7.94,0,0,1-.63-.67,5.56,5.56,0,0,1-.86-1.61,4.11,4.11,0,0,1-.17-.6,2.68,2.68,0,0,1-.11-.63s0-.05,0-.08a.28.28,0,0,1,0-.09c0-.14,0-.28,0-.45v0c0-.18,0-.36,0-.54a10.1,10.1,0,0,1,.61-2.68l.22-.54c1-2.21,2.45-4.14,3.56-6.28A20.48,20.48,0,0,0,71,27.83a21.13,21.13,0,0,0-.48-3.8c-.12-.55-.26-1.1-.43-1.66a20.88,20.88,0,0,0-1-2.64,26.78,26.78,0,0,0-1.3-2.49,25.67,25.67,0,0,0-1.57-2.33A27.25,27.25,0,0,0,63.7,12a19.85,19.85,0,0,0-2.1-1.79.27.27,0,0,0-.08-.07c0-.21,0-.43,0-.64a8.76,8.76,0,0,1,.21-1.95,7.78,7.78,0,0,1,1.35-3c.2-.27,1-1.25,1.25-1.46A.76.76,0,0,1,64.4,3a5,5,0,0,1,4.8-1.49,5.82,5.82,0,0,1,1,.35,5.23,5.23,0,0,1,.89.53,3.76,3.76,0,0,1,.84.85,5.63,5.63,0,0,1,1,3.26,5.52,5.52,0,0,1-.25,1.66,1.87,1.87,0,0,0-.24.47.35.35,0,0,0,0,.13.16.16,0,0,0,0,.12v.14a.41.41,0,0,0,0,.11v.16a.62.62,0,0,0,0,.13.79.79,0,0,1,0,.13.43.43,0,0,0,0,.11,1.88,1.88,0,0,0,.47.74,1.37,1.37,0,0,0,.17.17s.06.06.08.09a4.34,4.34,0,0,0,2.54,1,4.16,4.16,0,0,0,2.51-1s.06,0,.08-.09a1.37,1.37,0,0,0,.17-.17A1.66,1.66,0,0,0,79,9.32V9a1.66,1.66,0,0,0-.53-1.12,1.37,1.37,0,0,0-.17-.17.6.6,0,0,0-.08-.08A4.38,4.38,0,0,0,77.28,7a4.05,4.05,0,0,0-1.23-.41l-.24,0a2.66,2.66,0,0,0-.64.06,3.89,3.89,0,0,0-.4.1A7.6,7.6,0,0,0,74,4.45a7.71,7.71,0,0,0-3.52-3.13A6.9,6.9,0,0,0,69.1.86,3.46,3.46,0,0,0,68.39.8Z" transform="translate(-0.47 0.79)"/><path class="cls-1" d="M49.68,20.65a3.22,3.22,0,0,1,2,.58,3.57,3.57,0,0,1,.43.34A5.53,5.53,0,0,1,53.17,23l.3.56-.14-.07-.11-.07a5.93,5.93,0,0,0-2.89-.95,3.13,3.13,0,0,0-1.6.42,3.41,3.41,0,0,0-.94.86v-.26a3.71,3.71,0,0,1,.06-.67l0-.09v-.18a1.83,1.83,0,0,1,.05-.47l.07-.14v-.09a1.86,1.86,0,0,1,.29-.58,1.63,1.63,0,0,1,.23-.29l.07-.06a1.4,1.4,0,0,1,.76-.24h.34m6.55,8.29a4.53,4.53,0,0,1,.09.74v1a3.65,3.65,0,0,1-.43,1.72,2.57,2.57,0,0,1-.61.49l-.6.22a11,11,0,0,1-1.58.14,2.54,2.54,0,0,1-2.6-1.41l0-.09-.06-.07-1.26-1.54a5,5,0,0,1-.58-.86A6,6,0,0,0,50,30.47a6.12,6.12,0,0,0,2.89.84A3.34,3.34,0,0,0,56,29.39a2.25,2.25,0,0,0,.19-.45m-6.55-9.29H49.3A2.57,2.57,0,0,0,48,20.1l-.17.16a2.89,2.89,0,0,0-.35.42,3,3,0,0,0-.46,1l0,0a3.1,3.1,0,0,0-.1.81v.09a4.8,4.8,0,0,0-.08.85V25.6a2.55,2.55,0,0,0,0,.38,9.46,9.46,0,0,0,.08,1.21h0c0,.17,0,.34.06.51a6.45,6.45,0,0,0,1.41,3.11l1.26,1.53a3.52,3.52,0,0,0,3.48,1.94,11.43,11.43,0,0,0,1.83-.17l.78-.28a3.63,3.63,0,0,0,1-.8.23.23,0,0,0,.05-.07,4.68,4.68,0,0,0,.58-2.25v-1a4.8,4.8,0,0,0-.58-2.2l-2.69-5a6.8,6.8,0,0,0-1.26-1.66,4.51,4.51,0,0,0-.54-.44,4.23,4.23,0,0,0-2.57-.75Zm3.25,10.66a5.19,5.19,0,0,1-2.41-.72c-1.5-.82-2.75-2.53-2.4-4.17a2.65,2.65,0,0,1,1.12-1.69,2.16,2.16,0,0,1,1.09-.28,5.57,5.57,0,0,1,2.54.9c2.34,1.24,3,3.31,2.28,4.58a2.35,2.35,0,0,1-2.22,1.38Z" transform="translate(-0.47 0.79)"/><path class="cls-1" d="M39.74,28.74a.58.58,0,1,1-.58.57.58.58,0,0,1,.58-.57m0-1a1.58,1.58,0,1,0,1.57,1.57,1.57,1.57,0,0,0-1.57-1.57Z" transform="translate(-0.47 0.79)"/><g class="cls-4"><path class="cls-1" d="M20.09,55.73l.05,0-.05,0Zm.08,0h0Z" transform="translate(-0.47 0.79)"/></g><path class="cls-1" d="M20.09,55.73l.05,0-.05,0Zm.08,0h0Z" transform="translate(-0.47 0.79)"/><path class="cls-1" d="M41.66,55.15l-1.84.05h1.41a3.15,3.15,0,0,0,.43-.05Z" transform="translate(-0.47 0.79)"/><path class="cls-1" d="M38,55.15a3.29,3.29,0,0,0,.44.05h1.41L38,55.15Z" transform="translate(-0.47 0.79)"/><path class="cls-1" d="M48.93,50.64a1.43,1.43,0,0,0-.83.37c-.73.59-1.1,1.48-1.81,2.09a11.92,11.92,0,0,1-1,.8,7,7,0,0,1-1.21.64,8.51,8.51,0,0,1-2.38.61,3.15,3.15,0,0,1-.43.05H38.41a3.29,3.29,0,0,1-.44-.05,8.62,8.62,0,0,1-2.37-.61,7.48,7.48,0,0,1-1.22-.64c-.37-.24-.69-.53-1-.8-.71-.61-1.08-1.5-1.81-2.09a1.43,1.43,0,0,0-.83-.37h-.16a1.3,1.3,0,0,0-.77.32,9.45,9.45,0,0,0-1.26,1.5,8.26,8.26,0,0,1-.95.92,8.44,8.44,0,0,1-2.36,1.28,9,9,0,0,1-2.85.47,9.1,9.1,0,0,1-2-.22.51.51,0,0,0-.17,0,.43.43,0,0,0-.19.82l.07,0,.05,0h.07a8.81,8.81,0,0,0,2.49.34,8.69,8.69,0,0,0,6.58-2.82l.07-.08c.28-.32.55-.64.82-1,.11-.14.26-.44.48-.44s.35.24.41.32a12.5,12.5,0,0,0,.87,1.13l.09.09a8,8,0,0,0,3.13,2.2,9,9,0,0,0,3.49.66H41a9.08,9.08,0,0,0,3.49-.66,8.07,8.07,0,0,0,3.13-2.2l.08-.09c.3-.35.6-.73.88-1.13.06-.08.23-.32.41-.32s.37.3.48.44c.26.34.54.66.82,1l.07.08a8.69,8.69,0,0,0,6.58,2.82,8.81,8.81,0,0,0,2.49-.34h.06l.06,0,.07,0a.45.45,0,0,0,.24-.39.43.43,0,0,0-.43-.43.51.51,0,0,0-.17,0,9.24,9.24,0,0,1-2,.22,8.92,8.92,0,0,1-2.85-.47,8.12,8.12,0,0,1-2.35-1.28,7,7,0,0,1-1-.92A9.52,9.52,0,0,0,49.85,51a1.24,1.24,0,0,0-.76-.32Z" transform="translate(-0.47 0.79)"/><path class="cls-1" d="M123.43,14.53a15,15,0,0,1,5.77,4.1,6.05,6.05,0,0,1,.55.65l.5.63a13,13,0,0,1,2,5.35l.11,1.44.94,11.36.07.85-3.31,4.34-.49-5.87-.42-5.08L128.66,26l-.35-4.34-.06.16c0-.06,0-.12,0-.18l-.7-3.26-1.21,3.11-3.65,9.37-1,2.63-4.2,10.8-.49,1.25h-.43a27.79,27.79,0,0,0-3.54.16l.6-1.54,2.2-5.62L116,38l1.66-4.27.52-1.36.57-1.45,5.15-13.25.5-1.28,0-.05v0l.18-.56-.4-.44a8.16,8.16,0,0,0-.79-.74M108.2,17a5.54,5.54,0,0,0-.75,1.7l0,.08a4.71,4.71,0,0,0-.12.71v.15c0,.14,0,.28,0,.42a2.77,2.77,0,0,0,0,.61l.18.78h2.06a.58.58,0,0,1,.59.58v1.31a.55.55,0,0,1-.1.32.58.58,0,0,1-.49.27h-1.51l-.12,0a3.84,3.84,0,0,1-.56-.84,5.18,5.18,0,0,1-.61-2.46A5.11,5.11,0,0,1,108.2,17m42.31,1.66,3.33,1.43L144,45.38l-.08.2H140l9.62-24.74.85-2.19h0m-50.23,24.5a.9.9,0,0,1,.63.32,2.1,2.1,0,0,1,.46,1.26l0,.13,0,.27a3.61,3.61,0,0,0,1.32,2.14c-.41,0-.8-.09-1.18-.16a5.24,5.24,0,0,1-1.17-.56,5.5,5.5,0,0,1-.9-.67,2.06,2.06,0,0,1-.24-.85v-.11a.41.41,0,0,1,0-.11c0-.88.51-1.66,1.09-1.66m17.58-30.68a15.86,15.86,0,0,0-9.46,3.08l-.31.21-.07.06a6,6,0,0,0-2.25,4.78,6.16,6.16,0,0,0,.73,2.94,5.11,5.11,0,0,0,.85,1.2.08.08,0,0,0,.07,0,1.57,1.57,0,0,0,.64.14h1.51a1.6,1.6,0,0,0,1.32-.7,1.59,1.59,0,0,0,.27-.89V22a1.59,1.59,0,0,0-1.59-1.58H108.3a2.48,2.48,0,0,1,0-.39c0-.18,0-.34,0-.51a3.77,3.77,0,0,1,.13-.62,4.44,4.44,0,0,1,.9-1.77,8.36,8.36,0,0,1,2.28-2.31,9,9,0,0,1,5.29-1.67,9.17,9.17,0,0,1,5.47,1.8,7.94,7.94,0,0,1,1.12,1v0l-.5,1.27L117.83,30.5,117.26,32l-.52,1.36-1.67,4.26-.24.65-2.19,5.61-.89,2.28-.19.08-.56.22c-.2.08-.39.14-.59.2s-.41.13-.61.18l-.63.15-.66.12-.67.1-.34,0h-.18l-.18,0c-.24,0-.47,0-.71,0h-.09c-1.69-.05-3.54-.35-4-2.35a.37.37,0,0,0,0-.11,3,3,0,0,0-.71-2,1.89,1.89,0,0,0-1.38-.66,2.43,2.43,0,0,0-2.09,2.66,1.42,1.42,0,0,0,0,.29,2.92,2.92,0,0,0,.47,1.42,6.27,6.27,0,0,0,1.16.89,6.2,6.2,0,0,0,1.43.67,16.67,16.67,0,0,0,3,.26h.06a18,18,0,0,0,6.06-1,17.45,17.45,0,0,1,6.09-.77h1.12l.73-1.89,4.2-10.8,1-2.63,3.65-9.37a8.09,8.09,0,0,1,.18,1.78,8,8,0,0,1,0,.86s-1.86,4.8-1.86,4.8l-1.76,4.53-2.68,6.91-1.5,3.84-.77,2h.9l.82-2.1,1.5-3.85,2.68-6.88,3-7.63.51,6.26.42,5.08.61,7.23.09,1.25,5.12-6.71L148.7,20.48l-9.82,25.26-.33.84h10.29l.35-.84h-4.25l10.19-26.2-.77-.32-3.53-1.52-.12-.05h-.91L134.31,38l-.94-11.36-.11-1.46a14,14,0,0,0-2.68-6.52l0,0c-.19-.25-.4-.49-.62-.73a16,16,0,0,0-12.08-5.48Z" transform="translate(-0.47 0.79)"/><path class="cls-1" d="M165,26.84h.67l-.24.63-1.57,4.07-3,7.66h0l-.14.36-2.32,6h-2.91l.68-1.75,1.5-3.87,3.92-10.06.54-1.4L163.82,27a7.79,7.79,0,0,1,1-.12H165m0-1h-.36a9.72,9.72,0,0,0-5.66,2.36,35.25,35.25,0,0,0-4.25,4.38s0,0,0,.06l.53.59c.36-.38,3.87-4.55,6.11-5.42l-.11.1-.62,1.63L156.76,39.6l-1.5,3.87-.85,2.18-.36.93h5.06l.15-.39,2.41-6.26h0l3.13-8,1.58-4.07.71-1.88a9.71,9.71,0,0,0-1.2-.1Z" transform="translate(-0.47 0.79)"/><path class="cls-1" d="M175.81,26.84l3.34,1.42-6.5,16.85-.19.47h-3.91l3-7.66.7-1.8,0,0,.05-.15,3.49-9.08h0m.2-1h-.9l-3.73,9.72a55.18,55.18,0,0,1-4.82,5.89c-1.82,1.8-3.13,3.49-4.78,4.26a1.41,1.41,0,0,1-.57.13l.17-.42.5-1.27,1-2.44L168,28.38l.58-1.49.41-1.05h-.91l-.33.85-.53,1.38-1.6,4.09-1.42,3.68L162,41.54l-.88,2.27-.52,1.34L160,46.58h.9a3,3,0,0,0,1-.17c1.66-.75,3-2.46,4.79-4.26a36.17,36.17,0,0,0,3.83-4.6l-3.5,9h6l.08,0c.52-.22,1.27-.34,2-.66a5,5,0,0,0,3-2.69,3.44,3.44,0,0,0-.08-1.55l0,0c-.25,1-.9,2.37-3.2,3.37a10.29,10.29,0,0,1-1.23.4l6.85-17.75L176,25.84Z" transform="translate(-0.47 0.79)"/><path class="cls-5" d="M107.43,24.79v0a.34.34,0,0,1-.09-.08Z" transform="translate(-0.47 0.79)"/><path class="cls-1" d="M215.33,26.83l-1.84,4.73-.16.43L208,45.58h-3.91l.58-1.49,0-.08,0,0,0,0,.32-.84,1-2.54,4.32-11.08,0-.07.4-1,.6-1.54h3.9m-21.26,0h.07l-.24.62-.74,1.91L190,37.43h0l-.25.64-2.91,7.49H183l2.9-7.44,1.37-3.52.06-.18h0l.16-.42.07-.17,1.21-3.11.69-1.77c.41-.32.84-.61,1.25-.87s.83-.53,1.21-.74l.07,0,.08,0h0l.07,0h0l.41-.15h0a3.48,3.48,0,0,1,.44-.11h.15l.1,0,.22,0c.19,0,.37,0,.56,0m2.85,1.25.79.31-.79-.3h0m1.69,1c.19.17.39.34.59.53A15.72,15.72,0,0,1,201,31.75a15.13,15.13,0,0,1,1.32,2.64l.18.5-.73,1.89-.21.52-3.22,8.28h-3.91l1.19-3.06,1.93-5,.84-2.15.13-.33a6.34,6.34,0,0,0,.36-.93A1.38,1.38,0,0,0,199,34a7.19,7.19,0,0,0,.27-2,1.06,1.06,0,0,0,0-.23,7,7,0,0,0-.62-2.71m18.18-3.25h-6l-.21.22-2,2.24-.43.47-2.65,2.93-1,1.08L203.29,34a15.16,15.16,0,0,0-1.42-2.85,15.94,15.94,0,0,0-2-2.3c-.47-.44-1-.87-1.47-1.27l0,0a4.88,4.88,0,0,0-.55-.47,5.12,5.12,0,0,0-.55-.4h0a6,6,0,0,0-.72-.36h0a.13.13,0,0,0-.07,0,5.72,5.72,0,0,0-.83-.26l-.1,0-.25-.06-.59-.09-.62,0c-.21,0-.41,0-.62,0a2.25,2.25,0,0,0-.36.06H193l-.17,0a4.73,4.73,0,0,0-.59.16l-.47.17-.12,0a.75.75,0,0,1-.13.06.39.39,0,0,1-.11.06s0,0,0,0c-.43.24-.87.5-1.28.77a16.89,16.89,0,0,0-1.52,1.08,3.11,3.11,0,0,0-.42.32c-.35.29-.66.57-1,.86h0l-1.13,1a42.43,42.43,0,0,0-3.62,4l.07,1.06A40.35,40.35,0,0,1,185.86,32c.22-.2.42-.41.65-.6l.19-.18c.12-.12.26-.24.39-.35a7.48,7.48,0,0,1,.69-.54l-1.27,3.27h0l-.23.59h0l-1.37,3.52-3.42,8.8h6l3.16-8.13h0l.13-.34h0l3.24-8.33.75-1.91.34-.92.08-.19h0l0,0a3.78,3.78,0,0,1,.33.22l.1.08.06,0a1.65,1.65,0,0,1,.32.26h0l0,.07-.36.89h0l-3.83,9.86-.17.45-1.62,4.14-1.47,3.79h.9l3.07-7.86.21-.56.13-.35.63-1.61.48-1.24,1.66-4.28.69-1.79.35-.86h0a6,6,0,0,1,1.45,3.86.27.27,0,0,1,0,.13,6.49,6.49,0,0,1-.24,1.72l0,.06a5,5,0,0,1-.33.87l-.15.36-.84,2.15-1.93,5L193,46.58h6.05l3.48-8.92.2-.51.85-2.19v0L209.9,28l-.4,1,0,.06-4.33,11.08-1,2.55-.33.84-.06.12-1.11,2.9h6.05v0a1.84,1.84,0,0,0,.4,0,6.4,6.4,0,0,0,5.49-3.16L214,43A6.2,6.2,0,0,1,209,46l5.3-13.6.17-.44,2.36-6.08Zm-20,2.2Zm0,0v0Zm0,0Z" transform="translate(-0.47 0.79)"/><path class="cls-1" d="M243.05,26.28l-1.81,4.64-.62,1.57-3.28,8.43-1.76,4.52-.26.68.57.46a3.55,3.55,0,0,0,.47.32h-5.25l1-2.57.34-.9.73-1.86,1.17-3h0l0-.07L236.53,33l.25-.65.14-.37.46-1.2.11-.26.3-.78.85-2.19.17-.44a20.39,20.39,0,0,1,4.24-.81m-16.7.56a10,10,0,0,1,2.78.38l-.65,1.68-2.59,6.63-3.9,10h-3.92l4.28-11,2.87-7.4.12-.31c.34,0,.67,0,1,0M245,25.19h-.49a21.56,21.56,0,0,0-6.48,1.09l-.34.88-.86,2.19-.3.79-.09.22L236,31.6l-.14.37-.25.64-2.15,5.5a18,18,0,0,1-3.3,4.28A14.55,14.55,0,0,1,228,44.15l-.19.15h0a12.2,12.2,0,0,1-1.28.76h0a11.08,11.08,0,0,1-1.47.63l.27-.68.25-.64,1.88-4.83,3.23-8.32,1.18-3.06.29-.74a5.88,5.88,0,0,0-.73-.41,8.59,8.59,0,0,0-1.28-.53,11,11,0,0,0-3.76-.64,12,12,0,0,0-2.11.18,11.15,11.15,0,0,0-4.42,1.88l.39.75a9.89,9.89,0,0,1,1.56-1,9,9,0,0,1,2-.74l.06,0,.41-.1-2.87,7.4-4.81,12.35h6.07l4.15-10.69,2.58-6.63.75-1.93a7.17,7.17,0,0,1,.94.4l-1.2,3.09-.53,1.34-1.13,2.92-.82,2.15-2.74,7-.26.64-.38,1-.26.66v0h.9a10.49,10.49,0,0,0,3.66-1.69s0,0,0,0a15,15,0,0,0,1.3-1,7.8,7.8,0,0,0,.86-.79,15,15,0,0,0,1.7-1.88l-.72,1.86-.35.9v0l-1.06,2.72-.45,1.18h6.88a6.13,6.13,0,0,0,2.47-.51,18.87,18.87,0,0,0,3.05-1.47l.52-.39.05,0a8.18,8.18,0,0,0,1.85-1.72s.05-.08.07-.1a.61.61,0,0,0,0-.15.34.34,0,0,0-.33-.31h0a.3.3,0,0,0-.16,0l-.06.06c-.5.36-1.27,1-1.92,1.49a13.29,13.29,0,0,1-3,1.5,2.14,2.14,0,0,1-.77.15h-.1a2.93,2.93,0,0,1-1.65-.66l1.75-4.52,3.28-8.43.62-1.56L244.23,26c.27,0,.53,0,.79,0a21.46,21.46,0,0,1,4,.36l.27-.73a23.18,23.18,0,0,0-4.31-.4Z" transform="translate(-0.47 0.79)"/><path class="cls-1" d="M24.05,8a22.58,22.58,0,0,0-3.95,3.55l-.4.45c-.1.12-.21.24-.31.38a22.38,22.38,0,0,0-5,14.09,21.72,21.72,0,0,0,.12,2.3v0a29.55,29.55,0,0,0,.35,4.34c.44,2.69,1.17,5.35,1.77,8,.27,1.19.62,2.36.87,3.55s.4,2.43.56,3.66c.06.52.09,1,.12,1.55v0c0,.47.05,1,0,1.43,0,.07,0,.13,0,.2a5.72,5.72,0,0,1-1.29,3,3.94,3.94,0,0,1-.64.65,5.2,5.2,0,0,1-.93.66,7,7,0,0,1-2.64.5,6.54,6.54,0,0,1-4.25-1.44.5.5,0,0,0-.35-.12,2.27,2.27,0,0,1-1.74-.64,2.36,2.36,0,0,1-.3-.34,3.33,3.33,0,0,1-.59-1.61A2.3,2.3,0,0,1,6,50.31a.52.52,0,0,1,.16-.14.14.14,0,0,1,.08-.05A2.14,2.14,0,0,1,8.07,50a3.55,3.55,0,0,1,1,.51,2.65,2.65,0,0,1,.43.38,1.5,1.5,0,0,1,.24.27,2.13,2.13,0,0,1,.16.25l.06.12s0,.05,0,.07a1.46,1.46,0,0,1,.12.33c0,.12.06.25.09.37a2.06,2.06,0,0,1,0,.43.48.48,0,0,1,0,.12.32.32,0,0,0,.1.13,1.35,1.35,0,0,0,1,.42,1.45,1.45,0,0,0,.76-.21l.44-.3c.29-.24.53-.45.78-.7a6.59,6.59,0,0,0,.63-.67,5.56,5.56,0,0,0,.86-1.61,4.11,4.11,0,0,0,.17-.6A2.68,2.68,0,0,0,15,48.7s0-.05,0-.08a.28.28,0,0,0,0-.09c0-.14,0-.28,0-.45v0c0-.18,0-.36,0-.54a10.1,10.1,0,0,0-.61-2.68l-.22-.54c-1-2.21-2.45-4.14-3.55-6.28a20.6,20.6,0,0,1-2.2-10.17A22.07,22.07,0,0,1,8.92,24c.12-.55.26-1.1.43-1.66a22.55,22.55,0,0,1,1-2.64,26.78,26.78,0,0,1,1.3-2.49,25.67,25.67,0,0,1,1.57-2.33A27.25,27.25,0,0,1,15.77,12a19.85,19.85,0,0,1,2.1-1.79l.08-.07c0-.21,0-.43,0-.64a8.76,8.76,0,0,0-.22-1.95,7.63,7.63,0,0,0-1.35-3c-.2-.27-1-1.25-1.25-1.46A.76.76,0,0,0,15.07,3a5.18,5.18,0,0,0-3.69-1.62,5.09,5.09,0,0,0-1.1.13,5.64,5.64,0,0,0-1,.35,6.14,6.14,0,0,0-.89.53,4,4,0,0,0-.84.85,5.63,5.63,0,0,0-1,3.26,5.52,5.52,0,0,0,.25,1.66A1.87,1.87,0,0,1,7,8.66a.35.35,0,0,1,0,.13.16.16,0,0,1,0,.12v.14a.41.41,0,0,1,0,.11v.16a.62.62,0,0,1,0,.13.5.5,0,0,1,0,.13.43.43,0,0,1,0,.11,1.88,1.88,0,0,1-.47.74,1.37,1.37,0,0,1-.17.17s-.06.06-.08.09a4.34,4.34,0,0,1-2.53,1,4.11,4.11,0,0,1-2.51-1s-.07,0-.09-.09A1.37,1.37,0,0,1,1,10.43,1.66,1.66,0,0,1,.47,9.32V9A1.66,1.66,0,0,1,1,7.91a1.37,1.37,0,0,1,.17-.17.34.34,0,0,1,.09-.08A4.14,4.14,0,0,1,3.42,6.59a3,3,0,0,1,.89,0c.09,0,.31.08.39.1a7.6,7.6,0,0,1,.78-2.28A7.71,7.71,0,0,1,9,1.32,6.9,6.9,0,0,1,10.37.86,3.46,3.46,0,0,1,11.08.8a8.26,8.26,0,0,1,1,.06l.65.08a2.4,2.4,0,0,1,.87.28,10.69,10.69,0,0,1,3.22,2.83l0,0a13.3,13.3,0,0,1,.91,1.43,11.89,11.89,0,0,1,.77,1.8,1.3,1.3,0,0,0,0,.13,9.86,9.86,0,0,1,.36,1.63,2.19,2.19,0,0,1,0,.36c.12-.09.25-.16.37-.24A20.38,20.38,0,0,1,21.42,8l.25-.12a3,3,0,0,1,1.12-.23A2.79,2.79,0,0,1,24.05,8Z" transform="translate(-0.47 0.79)"/><path class="cls-6" d="M15,48.1c0,.15,0,.29,0,.43a.28.28,0,0,1,0,.09C15,48.45,15,48.28,15,48.1Z" transform="translate(-0.47 0.79)"/><path class="cls-7" d="M7,9.58v0a.64.64,0,0,0,0,.07A.43.43,0,0,0,7,9.58Z" transform="translate(-0.47 0.79)"/><path class="cls-7" d="M7.08,9.16v.16a.66.66,0,0,0,0-.14h0Z" transform="translate(-0.47 0.79)"/><path class="cls-7" d="M7.07,9.05V9a.38.38,0,0,0,0-.1.21.21,0,0,0,0-.13.16.16,0,0,1,0,.12V9a.15.15,0,0,1,0,.07Z" transform="translate(-0.47 0.79)"/><path class="cls-1" d="M32.61,22.62v-.09a3.1,3.1,0,0,0-.11-.81v0a3.22,3.22,0,0,0-.47-1,2.89,2.89,0,0,0-.35-.42l-.17-.16a2.5,2.5,0,0,0-1.33-.44h0a4.45,4.45,0,0,0-2.94.74,4.51,4.51,0,0,0-.54.44,6.8,6.8,0,0,0-1.26,1.66l-2.69,5a4.67,4.67,0,0,0-.57,2.2v1A4.67,4.67,0,0,0,22.73,33l.05.07a3.79,3.79,0,0,0,1,.8l.79.28c2.63.43,4.28.12,5.3-1.77l1.27-1.53a6.53,6.53,0,0,0,1.4-3.11,4.43,4.43,0,0,0,.06-.51h0A9.43,9.43,0,0,0,32.67,26c0-.14,0-.26,0-.38V23.47A6,6,0,0,0,32.61,22.62Zm-3.66,7c-1.83,1-3.73,1.11-4.63-.66-.66-1.27-.06-3.34,2.28-4.58.35-.18,2.2-1.46,3.63-.62a2.63,2.63,0,0,1,1.13,1.69C31.7,27.06,30.46,28.77,29,29.59Z" transform="translate(-0.47 0.79)"/><path class="cls-1" d="M55.42,8a22.23,22.23,0,0,1,3.95,3.55l.4.45a3.93,3.93,0,0,1,.31.38,22.38,22.38,0,0,1,5,14.09,21.72,21.72,0,0,1-.12,2.3v0a28.24,28.24,0,0,1-.35,4.34c-.43,2.69-1.17,5.35-1.77,8-.27,1.19-.62,2.36-.87,3.55s-.4,2.43-.56,3.66c-.06.52-.09,1-.12,1.55v0c0,.47,0,1,0,1.43,0,.07,0,.13,0,.2a5.72,5.72,0,0,0,1.29,3,4,4,0,0,0,.65.65,4.79,4.79,0,0,0,.92.66,7,7,0,0,0,2.64.5A6.54,6.54,0,0,0,71,54.93a.5.5,0,0,1,.35-.12,2.31,2.31,0,0,0,1.75-.64c.1-.11.21-.22.3-.34A3.42,3.42,0,0,0,74,52.22a2.3,2.3,0,0,0-.51-1.91.52.52,0,0,0-.16-.14.14.14,0,0,0-.08-.05,2.11,2.11,0,0,0-1.8-.1,3.27,3.27,0,0,0-1,.51,2.36,2.36,0,0,0-.44.38,2,2,0,0,0-.24.27,1.28,1.28,0,0,0-.15.25.23.23,0,0,0-.06.12s0,.05,0,.07a1.46,1.46,0,0,0-.12.33,2.45,2.45,0,0,0-.08.37,1.24,1.24,0,0,0,0,.43s0,.08,0,.12a.35.35,0,0,1-.11.13,1.33,1.33,0,0,1-1,.42,1.48,1.48,0,0,1-.76-.21l-.44-.3c-.29-.24-.53-.45-.78-.7a7.94,7.94,0,0,1-.63-.67,5.56,5.56,0,0,1-.86-1.61,4.11,4.11,0,0,1-.17-.6,2.68,2.68,0,0,1-.11-.63s0-.05,0-.08a.28.28,0,0,1,0-.09c0-.14,0-.28,0-.45v0c0-.18,0-.36,0-.54a10.1,10.1,0,0,1,.61-2.68l.22-.54c1-2.21,2.45-4.14,3.56-6.28A20.48,20.48,0,0,0,71,27.83a21.13,21.13,0,0,0-.48-3.8c-.12-.55-.26-1.1-.43-1.66a20.88,20.88,0,0,0-1-2.64,26.78,26.78,0,0,0-1.3-2.49,25.67,25.67,0,0,0-1.57-2.33A27.25,27.25,0,0,0,63.7,12a19.85,19.85,0,0,0-2.1-1.79.27.27,0,0,0-.08-.07c0-.21,0-.43,0-.64a8.76,8.76,0,0,1,.21-1.95,7.78,7.78,0,0,1,1.35-3c.2-.27,1-1.25,1.25-1.46A.76.76,0,0,1,64.4,3a5,5,0,0,1,4.8-1.49,5.82,5.82,0,0,1,1,.35,5.23,5.23,0,0,1,.89.53,3.76,3.76,0,0,1,.84.85,5.63,5.63,0,0,1,1,3.26,5.52,5.52,0,0,1-.25,1.66,1.87,1.87,0,0,0-.24.47.35.35,0,0,0,0,.13.16.16,0,0,0,0,.12v.14a.41.41,0,0,0,0,.11v.16a.62.62,0,0,0,0,.13.79.79,0,0,1,0,.13.43.43,0,0,0,0,.11,1.88,1.88,0,0,0,.47.74,1.37,1.37,0,0,0,.17.17s.06.06.08.09a4.34,4.34,0,0,0,2.54,1,4.16,4.16,0,0,0,2.51-1s.06,0,.08-.09a1.37,1.37,0,0,0,.17-.17A1.66,1.66,0,0,0,79,9.32V9a1.66,1.66,0,0,0-.53-1.12,1.37,1.37,0,0,0-.17-.17.6.6,0,0,0-.08-.08A4.38,4.38,0,0,0,77.28,7a4.05,4.05,0,0,0-1.23-.41,3,3,0,0,0-.88,0,3.89,3.89,0,0,0-.4.1A7.6,7.6,0,0,0,74,4.45a7.71,7.71,0,0,0-3.52-3.13A6.9,6.9,0,0,0,69.1.86,3.46,3.46,0,0,0,68.39.8a8.26,8.26,0,0,0-1,.06l-.65.08a2.47,2.47,0,0,0-.87.28,10.69,10.69,0,0,0-3.22,2.83l0,0a12,12,0,0,0-.92,1.43,11.89,11.89,0,0,0-.77,1.8,1.3,1.3,0,0,1,0,.13,9.86,9.86,0,0,0-.36,1.63c0,.12,0,.24,0,.36-.12-.09-.25-.16-.37-.24A20.38,20.38,0,0,0,58.05,8C58,8,57.88,8,57.8,7.92a3,3,0,0,0-1.12-.23A2.79,2.79,0,0,0,55.42,8Z" transform="translate(-0.47 0.79)"/><path class="cls-1" d="M46.79,23.47V25.6a2.55,2.55,0,0,0,0,.38,9.46,9.46,0,0,0,.08,1.21h0c0,.17,0,.34.06.51a6.45,6.45,0,0,0,1.41,3.11l1.26,1.53c1,1.89,2.68,2.2,5.31,1.77l.78-.28a3.63,3.63,0,0,0,1-.8.23.23,0,0,0,.05-.07,4.68,4.68,0,0,0,.58-2.25v-1a4.8,4.8,0,0,0-.58-2.2l-2.69-5a6.8,6.8,0,0,0-1.26-1.66,4.51,4.51,0,0,0-.54-.44,4.42,4.42,0,0,0-2.93-.74h0A2.57,2.57,0,0,0,48,20.1l-.17.16a2.89,2.89,0,0,0-.35.42,3,3,0,0,0-.46,1l0,0a3.1,3.1,0,0,0-.1.81v.09A4.8,4.8,0,0,0,46.79,23.47Zm1.33,2a2.65,2.65,0,0,1,1.12-1.69c1.43-.84,3.28.44,3.63.62,2.34,1.24,3,3.31,2.28,4.58-.9,1.77-2.79,1.66-4.63.66C49,28.77,47.77,27.06,48.12,25.42Z" transform="translate(-0.47 0.79)"/><circle class="cls-1" cx="39.26" cy="30.1" r="1.58"/><path class="cls-8" d="M20.21,55.75h-.05l-.07,0a.11.11,0,0,0,.08,0Z" transform="translate(-0.47 0.79)"/><path class="cls-1" d="M20.17,55.74h0l-.07,0A.11.11,0,0,0,20.17,55.74Z" transform="translate(-0.47 0.79)"/><path class="cls-1" d="M41.66,55.15a3.15,3.15,0,0,1-.43.05H39.82Z" transform="translate(-0.47 0.79)"/><path class="cls-1" d="M39.82,55.2H38.41a3.29,3.29,0,0,1-.44-.05Z" transform="translate(-0.47 0.79)"/><path class="cls-1" d="M59.86,55.32a.45.45,0,0,1-.24.39l-.07,0a.13.13,0,0,1-.09,0h0a8.81,8.81,0,0,1-2.49.34,8.69,8.69,0,0,1-6.58-2.82l-.07-.08c-.28-.32-.56-.64-.82-1-.11-.14-.26-.44-.48-.44s-.35.24-.41.32c-.28.4-.58.78-.88,1.13l-.08.09a8.07,8.07,0,0,1-3.13,2.2,9.08,9.08,0,0,1-3.49.66H38.64a9,9,0,0,1-3.49-.66A8,8,0,0,1,32,53.31l-.09-.09a12.5,12.5,0,0,1-.87-1.13c-.06-.08-.23-.32-.41-.32s-.37.3-.48.44c-.27.34-.54.66-.82,1l-.07.08a8.69,8.69,0,0,1-6.58,2.82,8.81,8.81,0,0,1-2.49-.34h0a.11.11,0,0,1-.08,0l-.07,0a.43.43,0,0,1,.19-.82.51.51,0,0,1,.17,0,9.1,9.1,0,0,0,2,.22,9,9,0,0,0,2.85-.47,8.44,8.44,0,0,0,2.36-1.28,8.26,8.26,0,0,0,.95-.92A9.45,9.45,0,0,1,29.78,51a1.3,1.3,0,0,1,.77-.32h.16a1.43,1.43,0,0,1,.83.37c.73.59,1.1,1.48,1.81,2.09.34.27.66.56,1,.8a7.48,7.48,0,0,0,1.22.64,8.62,8.62,0,0,0,2.37.61,3.29,3.29,0,0,0,.44.05h2.82a3.15,3.15,0,0,0,.43-.05A8.51,8.51,0,0,0,44,54.54a7,7,0,0,0,1.21-.64,11.92,11.92,0,0,0,1-.8c.71-.61,1.08-1.5,1.81-2.09a1.43,1.43,0,0,1,.83-.37h.16a1.24,1.24,0,0,1,.76.32,9.52,9.52,0,0,1,1.27,1.5,7,7,0,0,0,1,.92,8.12,8.12,0,0,0,2.35,1.28,8.92,8.92,0,0,0,2.85.47,9.24,9.24,0,0,0,2-.22.51.51,0,0,1,.17,0A.43.43,0,0,1,59.86,55.32Z" transform="translate(-0.47 0.79)"/><path class="cls-1" d="M144.94,45.74h4.25l-.35.84H138.55l.33-.84,9.82-25.26L134.41,39.23l-5.12,6.71-.09-1.25-.61-7.23-.42-5.08-.51-6.26-3,7.63L122,40.63l-1.5,3.85-.82,2.1h-.9l.77-2,1.5-3.84,2.68-6.91,1.76-4.53s1.86-4.78,1.86-4.8a8,8,0,0,0,0-.86,8.09,8.09,0,0,0-.18-1.78l-3.65,9.37-1,2.63-4.2,10.8-.73,1.89c-2.5,0-4.86-.08-7.21.77a18,18,0,0,1-6.06,1h-.06a16.67,16.67,0,0,1-3-.26,6.2,6.2,0,0,1-1.43-.67,6.27,6.27,0,0,1-1.16-.89,2.92,2.92,0,0,1-.47-1.42,1.42,1.42,0,0,1,0-.29,2.43,2.43,0,0,1,2.09-2.66,1.89,1.89,0,0,1,1.38.66,3,3,0,0,1,.71,2,.37.37,0,0,1,0,.11c.44,2,2.29,2.3,4,2.35h.09c.24,0,.47,0,.71,0l.18,0h.18l.34,0,.67-.1.66-.12.63-.15c.2,0,.41-.11.61-.18s.39-.12.59-.2l.56-.22.19-.08.89-2.28,2.19-5.61.24-.65,1.67-4.26.52-1.36.57-1.46L123,17.25l.5-1.27v0a7.94,7.94,0,0,0-1.12-1,9.17,9.17,0,0,0-5.47-1.8,9,9,0,0,0-5.29,1.67,8.36,8.36,0,0,0-2.28,2.31,4.44,4.44,0,0,0-.9,1.77,3.77,3.77,0,0,0-.13.62c0,.17,0,.33,0,.51a2.48,2.48,0,0,0,0,.39h1.27A1.59,1.59,0,0,1,111.16,22v1.31a1.59,1.59,0,0,1-.27.89,1.6,1.6,0,0,1-1.32.7h-1.51a1.57,1.57,0,0,1-.64-.14.08.08,0,0,1-.07,0,5.11,5.11,0,0,1-.85-1.2,6.16,6.16,0,0,1-.73-2.94A6,6,0,0,1,108,15.82l.07-.06.31-.21A16.06,16.06,0,0,1,129.94,18c.22.24.43.48.62.73l0,0a14,14,0,0,1,2.68,6.52l.11,1.46L134.31,38,149.8,17.65h.91l.12.05,3.53,1.52.77.32Z" transform="translate(-0.47 0.79)"/><path class="cls-1" d="M167.11,26l-.71,1.88-1.58,4.07-3.13,8h0l-2.41,6.26-.15.39h-5.06l.36-.93.85-2.18,1.5-3.87,3.92-10,.62-1.63.11-.1c-2.24.87-5.75,5-6.11,5.42l-.53-.59s0,0,0-.06a35.25,35.25,0,0,1,4.25-4.38,9.72,9.72,0,0,1,5.66-2.36h1.2A9.71,9.71,0,0,1,167.11,26Z" transform="translate(-0.47 0.79)"/><path class="cls-1" d="M178.11,43.21a5,5,0,0,1-3,2.69c-.72.32-1.47.44-2,.66l-.08,0h-6l3.5-9a36.17,36.17,0,0,1-3.83,4.6C165,44,163.63,45.66,162,46.41a3,3,0,0,1-1,.17H160l.55-1.43.52-1.34.88-2.27,2.22-5.7,1.42-3.68,1.6-4.09.53-1.38.33-.85H169l-.41,1.05L168,28.38l-5.18,13.33-1,2.44-.5,1.27-.17.42a1.41,1.41,0,0,0,.57-.13c1.65-.77,3-2.46,4.78-4.26a55.18,55.18,0,0,0,4.82-5.89l3.73-9.72h.9l4.42,1.88-6.85,17.75a10.29,10.29,0,0,0,1.23-.4c2.3-1,2.95-2.33,3.2-3.37C178.07,41.47,178.2,42.2,178.11,43.21Z" transform="translate(-0.47 0.79)"/><path class="cls-1" d="M214,43l.6.42a6.4,6.4,0,0,1-5.49,3.16,1.84,1.84,0,0,1-.4,0v0h-6.05l1.11-2.9.06-.12.33-.84,1-2.55,4.33-11.08,0-.06.4-1-6.3,6.91v0l-.85,2.19-.2.51-3.48,8.92H193l1.72-4.42,1.93-5L197.5,35l.15-.36a5,5,0,0,0,.33-.87l0-.06a6.49,6.49,0,0,0,.24-1.72.27.27,0,0,0,0-.13A6,6,0,0,0,196.78,28h0l-.35.86-.69,1.79L194.08,35l-.48,1.24L193,37.81l-.13.35-.21.56-3.07,7.86h-.9l1.47-3.79,1.62-4.14.17-.45,3.83-9.86h0l.36-.89,0-.07h0a1.65,1.65,0,0,0-.32-.26l-.06,0-.1-.08a3.78,3.78,0,0,0-.33-.22l0,0h0l-.08.19-.34.92-.75,1.91-3.24,8.33h0l-.13.34h0l-3.16,8.13h-6l3.42-8.8,1.37-3.52h0l.23-.59h0l1.27-3.27a7.48,7.48,0,0,0-.69.54c-.13.11-.27.23-.39.35l-.19.18c-.23.19-.43.4-.65.6a40.35,40.35,0,0,0-3.37,3.56l-.07-1.06a42.43,42.43,0,0,1,3.62-4l1.13-1h0c.33-.29.64-.57,1-.86a3.11,3.11,0,0,1,.42-.32,16.89,16.89,0,0,1,1.52-1.08c.41-.27.85-.53,1.28-.77,0,0,0,0,0,0a.39.39,0,0,0,.11-.06.75.75,0,0,0,.13-.06l.12,0,.47-.17a4.73,4.73,0,0,1,.59-.16l.17,0h.08a2.25,2.25,0,0,1,.36-.06c.21,0,.41,0,.62,0l.62,0,.59.09.25.06.1,0a5.72,5.72,0,0,1,.83.26.13.13,0,0,1,.07,0h0a6,6,0,0,1,.72.36h0a5.12,5.12,0,0,1,.55.4,4.88,4.88,0,0,1,.55.47l0,0c.51.4,1,.83,1.47,1.27a15.94,15.94,0,0,1,2,2.3A15.16,15.16,0,0,1,203.29,34l1.14-1.27,1-1.08,2.65-2.93.43-.47,2-2.24.21-.22h6l-2.36,6.08-.17.44L209,46A6.2,6.2,0,0,0,214,43Z" transform="translate(-0.47 0.79)"/><path class="cls-1" d="M249.33,25.59l-.27.73a21.46,21.46,0,0,0-4-.36c-.26,0-.52,0-.79,0l-2.06,5.31-.62,1.56-3.28,8.43-1.75,4.52a2.93,2.93,0,0,0,1.65.66,2.23,2.23,0,0,0,.87-.15,13.29,13.29,0,0,0,3-1.5c.65-.47,1.42-1.13,1.92-1.49l.06-.06a.26.26,0,0,1,.19,0,.34.34,0,0,1,.33.31.61.61,0,0,1,0,.15s0,.07-.07.1a8.18,8.18,0,0,1-1.85,1.72l-.05,0-.52.39A18.87,18.87,0,0,1,239,47.39a6.13,6.13,0,0,1-2.47.51h-6.88l.45-1.18L231.16,44v0l.35-.9.72-1.86a15,15,0,0,1-1.7,1.88,7.8,7.8,0,0,1-.86.79,15,15,0,0,1-1.3,1s0,0,0,0a10.49,10.49,0,0,1-3.66,1.69h-.9v0l.26-.66.38-1,.26-.64,2.74-7,.82-2.15,1.13-2.92.53-1.34,1.2-3.09a7.17,7.17,0,0,0-.94-.4l-.75,1.93-2.58,6.63-4.15,10.69h-6.07l4.81-12.35,2.87-7.4-.41.1-.06,0a9,9,0,0,0-2,.74,9.89,9.89,0,0,0-1.56,1l-.39-.75A11.15,11.15,0,0,1,224.24,26a12,12,0,0,1,2.11-.18,11,11,0,0,1,3.76.64,8.59,8.59,0,0,1,1.28.53,5.88,5.88,0,0,1,.73.41l-.29.74-1.18,3.06-3.23,8.32-1.88,4.83-.25.64-.27.68a11.08,11.08,0,0,0,1.47-.63h0a12.2,12.2,0,0,0,1.28-.76h0l.19-.15a14.55,14.55,0,0,0,2.16-1.76,18,18,0,0,0,3.3-4.28l2.15-5.5.25-.64.14-.37.47-1.23.09-.22.3-.79.86-2.19.34-.88a21.56,21.56,0,0,1,6.48-1.09H245A23.18,23.18,0,0,1,249.33,25.59Z" transform="translate(-0.47 0.79)"/></svg>